<?xml version="1.0" encoding="UTF-8"?>
<svg version="1.1" xmlns="http://www.w3.org/2000/svg" width="1024" height="1024">
<path d="M0 0 C337.92 0 675.84 0 1024 0 C1024 337.92 1024 675.84 1024 1024 C686.08 1024 348.16 1024 0 1024 C0 686.08 0 348.16 0 0 Z " fill="#F5F5F4" transform="translate(0,0)"/>
<path d="M0 0 C2.66879722 1.88844716 3.9633557 3.2963171 5.00390625 6.41796875 C5.64339358 10.81444415 5.37515471 12.79314772 3.09375 16.6328125 C1.35223919 18.61793672 0.43156418 19.33654871 -2.18505859 19.8347168 C-4.79014775 19.86492447 -7.33609778 19.74350376 -9.93359375 19.54296875 C-16.91385946 18.99186011 -16.91385946 18.99186011 -23.4375 21.16015625 C-27.93759791 25.13123501 -29.33728271 27.67869059 -30.18359375 33.66796875 C-30.34214844 34.745625 -30.50070312 35.82328125 -30.6640625 36.93359375 C-30.77363281 37.7534375 -30.88320313 38.57328125 -30.99609375 39.41796875 C-30.00996094 39.258125 -29.02382813 39.09828125 -28.0078125 38.93359375 C5.1399513 34.24687057 41.65055981 46.3689411 68.25390625 65.85546875 C92.96631992 85.03622956 110.24473919 108.90355212 118.00390625 139.41796875 C118.00390625 140.40796875 118.00390625 141.39796875 118.00390625 142.41796875 C118.93203125 142.33546875 119.86015625 142.25296875 120.81640625 142.16796875 C130.69461214 142.20788069 140.25537581 147.86377319 147.19921875 154.5234375 C155.3622189 163.2738122 159.60743637 172.94930295 159.25 185.0390625 C158.14851093 195.68679019 153.78308828 205.04202726 146.00390625 212.41796875 C148.36727682 213.59965403 149.86518222 213.51995455 152.50390625 213.60546875 C171.22073752 215.20414685 189.18302066 224.78479321 201.2265625 239.05078125 C225.28269015 270.61601791 218.19394422 321.47334098 218.18920898 359.31054688 C218.18912789 362.78813903 218.19606775 366.26559894 218.2097168 369.74316406 C218.28124818 388.28632212 218.12199825 406.77134582 217.07421875 425.2890625 C217.03233618 426.03460011 216.99045361 426.78013771 216.94730186 427.54826736 C215.56102115 451.60647741 212.53759269 473.75850873 194.31640625 491.23046875 C173.27866064 508.9242517 148.81720166 510.59296123 122.44140625 511.48046875 C120.2805738 511.55855157 118.11976615 511.63732397 115.95898438 511.71679688 C111.67503854 511.87345899 107.39092468 512.02311434 103.10656738 512.16804504 C98.66130217 512.32090016 94.21716693 512.4884395 89.77319336 512.67497253 C71.86259966 513.40802526 53.97440493 513.59551787 36.05246425 513.61781621 C33.65038038 513.62115623 31.24830407 513.62603397 28.84622383 513.63136101 C17.64329769 513.65589427 6.44040194 513.66551681 -4.7625494 513.66740751 C-7.43803623 513.66796968 -10.11352247 513.66903543 -12.78900909 513.67020035 C-97.74172485 513.70265007 -97.74172485 513.70265007 -138.77653885 512.20036316 C-141.34555055 512.10640298 -143.91468592 512.01662871 -146.4838562 511.92712402 C-150.41361162 511.78731873 -154.34236126 511.63122634 -158.27084541 511.45939827 C-160.2663566 511.37275286 -162.26219387 511.29371254 -164.25804138 511.2151947 C-187.85822928 510.03552792 -208.94782501 503.37697954 -225.99609375 486.41796875 C-226.62128906 485.82757812 -227.24648438 485.2371875 -227.890625 484.62890625 C-249.98557805 461.98532006 -246.32459382 422.32367855 -246.2265625 393.40625 C-246.22536438 391.00986252 -246.22491886 388.61347456 -246.22517395 386.21708679 C-246.22362731 381.24324516 -246.21547952 376.26947736 -246.2019043 371.2956543 C-246.18488966 364.98964376 -246.18109206 358.6837135 -246.18184948 352.37768269 C-246.18157481 347.44509648 -246.17604708 342.51252706 -246.16884804 337.57994652 C-246.16571578 335.25723585 -246.16370707 332.93452334 -246.16295433 330.61181068 C-246.11186713 255.44359894 -246.11186713 255.44359894 -225.48193359 233.57006836 C-211.74994967 219.92894758 -194.70162845 215.00021428 -175.99609375 212.41796875 C-176.44339844 211.9796875 -176.89070313 211.54140625 -177.3515625 211.08984375 C-185.97469251 202.04383103 -188.76894845 192.70710209 -188.58349609 180.42871094 C-188.0678333 169.44399633 -184.07882395 161.51556171 -176.46875 153.61328125 C-169.80340698 147.69555175 -162.13996986 143.44041763 -153.18359375 142.79296875 C-152.20777344 142.71820313 -151.23195313 142.6434375 -150.2265625 142.56640625 C-149.49050781 142.51742187 -148.75445312 142.4684375 -147.99609375 142.41796875 C-147.88136719 141.4228125 -147.76664062 140.42765625 -147.6484375 139.40234375 C-144.86346504 120.15369526 -133.51654179 100.91920879 -120.99609375 86.41796875 C-120.54008789 85.87978516 -120.08408203 85.34160156 -119.61425781 84.78710938 C-102.50183803 64.75019232 -78.90915145 49.18252608 -52.99609375 43.41796875 C-53.08310547 42.00257813 -53.08310547 42.00257813 -53.171875 40.55859375 C-53.58520595 28.79637578 -51.59535353 20.22772794 -43.68359375 11.04296875 C-31.95343926 -1.01570736 -16.15456496 -9.25711026 0 0 Z " fill="#E52D1D" transform="translate(522.99609375,163.58203125)"/>
<path d="M0 0 C2.66879722 1.88844716 3.9633557 3.2963171 5.00390625 6.41796875 C5.64339358 10.81444415 5.37515471 12.79314772 3.09375 16.6328125 C1.35223919 18.61793672 0.43156418 19.33654871 -2.18505859 19.8347168 C-4.79014775 19.86492447 -7.33609778 19.74350376 -9.93359375 19.54296875 C-16.91385946 18.99186011 -16.91385946 18.99186011 -23.4375 21.16015625 C-27.93759791 25.13123501 -29.33728271 27.67869059 -30.18359375 33.66796875 C-30.34214844 34.745625 -30.50070312 35.82328125 -30.6640625 36.93359375 C-30.77363281 37.7534375 -30.88320313 38.57328125 -30.99609375 39.41796875 C-30.00996094 39.258125 -29.02382813 39.09828125 -28.0078125 38.93359375 C5.1399513 34.24687057 41.65055981 46.3689411 68.25390625 65.85546875 C92.96631992 85.03622956 110.24473919 108.90355212 118.00390625 139.41796875 C118.00390625 140.40796875 118.00390625 141.39796875 118.00390625 142.41796875 C118.93203125 142.33546875 119.86015625 142.25296875 120.81640625 142.16796875 C130.69461214 142.20788069 140.25537581 147.86377319 147.19921875 154.5234375 C155.3622189 163.2738122 159.60743637 172.94930295 159.25 185.0390625 C158.14851093 195.68679019 153.78308828 205.04202726 146.00390625 212.41796875 C148.36727682 213.59965403 149.86518222 213.51995455 152.50390625 213.60546875 C171.22073752 215.20414685 189.18302066 224.78479321 201.2265625 239.05078125 C225.28269015 270.61601791 218.19394422 321.47334098 218.18920898 359.31054688 C218.18912789 362.78813903 218.19606775 366.26559894 218.2097168 369.74316406 C218.28124818 388.28632212 218.12199825 406.77134582 217.07421875 425.2890625 C217.03233618 426.03460011 216.99045361 426.78013771 216.94730186 427.54826736 C215.56102115 451.60647741 212.53759269 473.75850873 194.31640625 491.23046875 C173.27866064 508.9242517 148.81720166 510.59296123 122.44140625 511.48046875 C120.2805738 511.55855157 118.11976615 511.63732397 115.95898438 511.71679688 C111.67503854 511.87345899 107.39092468 512.02311434 103.10656738 512.16804504 C98.66130217 512.32090016 94.21716693 512.4884395 89.77319336 512.67497253 C71.86259966 513.40802526 53.97440493 513.59551787 36.05246425 513.61781621 C33.65038038 513.62115623 31.24830407 513.62603397 28.84622383 513.63136101 C17.64329769 513.65589427 6.44040194 513.66551681 -4.7625494 513.66740751 C-7.43803623 513.66796968 -10.11352247 513.66903543 -12.78900909 513.67020035 C-97.74172485 513.70265007 -97.74172485 513.70265007 -138.77653885 512.20036316 C-141.34555055 512.10640298 -143.91468592 512.01662871 -146.4838562 511.92712402 C-150.41361162 511.78731873 -154.34236126 511.63122634 -158.27084541 511.45939827 C-160.2663566 511.37275286 -162.26219387 511.29371254 -164.25804138 511.2151947 C-187.85822928 510.03552792 -208.94782501 503.37697954 -225.99609375 486.41796875 C-226.62128906 485.82757812 -227.24648438 485.2371875 -227.890625 484.62890625 C-249.98557805 461.98532006 -246.32459382 422.32367855 -246.2265625 393.40625 C-246.22536438 391.00986252 -246.22491886 388.61347456 -246.22517395 386.21708679 C-246.22362731 381.24324516 -246.21547952 376.26947736 -246.2019043 371.2956543 C-246.18488966 364.98964376 -246.18109206 358.6837135 -246.18184948 352.37768269 C-246.18157481 347.44509648 -246.17604708 342.51252706 -246.16884804 337.57994652 C-246.16571578 335.25723585 -246.16370707 332.93452334 -246.16295433 330.61181068 C-246.11186713 255.44359894 -246.11186713 255.44359894 -225.48193359 233.57006836 C-211.74994967 219.92894758 -194.70162845 215.00021428 -175.99609375 212.41796875 C-176.44339844 211.9796875 -176.89070313 211.54140625 -177.3515625 211.08984375 C-185.97469251 202.04383103 -188.76894845 192.70710209 -188.58349609 180.42871094 C-188.0678333 169.44399633 -184.07882395 161.51556171 -176.46875 153.61328125 C-169.80340698 147.69555175 -162.13996986 143.44041763 -153.18359375 142.79296875 C-152.20777344 142.71820313 -151.23195313 142.6434375 -150.2265625 142.56640625 C-149.49050781 142.51742187 -148.75445312 142.4684375 -147.99609375 142.41796875 C-147.88136719 141.4228125 -147.76664062 140.42765625 -147.6484375 139.40234375 C-144.86346504 120.15369526 -133.51654179 100.91920879 -120.99609375 86.41796875 C-120.54008789 85.87978516 -120.08408203 85.34160156 -119.61425781 84.78710938 C-102.50183803 64.75019232 -78.90915145 49.18252608 -52.99609375 43.41796875 C-53.08310547 42.00257813 -53.08310547 42.00257813 -53.171875 40.55859375 C-53.58520595 28.79637578 -51.59535353 20.22772794 -43.68359375 11.04296875 C-31.95343926 -1.01570736 -16.15456496 -9.25711026 0 0 Z M-143.80078125 231.4621582 C-179.04455988 231.09847769 -179.04455988 231.09847769 -209.48046875 246.703125 C-224.66590698 263.88458733 -224.92326507 284.51792146 -225.546875 306.37890625 C-225.56768946 307.08366467 -225.58850391 307.78842308 -225.60994911 308.51453781 C-226.0954712 325.2290969 -226.1946866 341.94232105 -226.18497467 358.66308212 C-226.18356969 361.08444035 -226.183679 363.50579596 -226.18377686 365.92715454 C-226.17819581 384.49830156 -226.12354118 403.05598732 -225.12109375 421.60546875 C-225.08188812 422.3460553 -225.0426825 423.08664185 -225.00228882 423.84967041 C-223.92716627 443.2527173 -222.7234671 462.42454085 -207.87109375 476.60546875 C-192.65527204 489.42147965 -174.35831639 490.38498257 -155.3984375 491.13671875 C-153.86147361 491.19975283 -152.32451697 491.26296391 -150.78756714 491.32633972 C-145.83645224 491.52894716 -140.88504633 491.7238184 -135.93359375 491.91796875 C-134.22195414 491.98556006 -132.51031474 492.05315652 -130.79867554 492.12075806 C-54.32782532 495.12949495 22.14044388 495.17864149 98.62890625 492.48046875 C99.72606964 492.44294495 100.82323303 492.40542114 101.9536438 492.36676025 C114.09363399 491.94369041 126.21934091 491.3505976 138.33984375 490.5390625 C139.973806 490.43997337 139.973806 490.43997337 141.64077759 490.33888245 C156.85203264 489.24823135 172.49431348 485.19870017 183.00390625 473.41796875 C193.29196856 460.25685414 194.90700972 445.51691486 196.00390625 429.41796875 C196.0872673 428.20220154 196.17062836 426.98643433 196.2565155 425.73382568 C197.05348953 413.29999963 197.15058377 400.90122396 197.13671875 388.4453125 C197.13739508 386.26648447 197.13836783 384.08765651 197.13961792 381.90882874 C197.14108161 377.36637648 197.13898497 372.82394406 197.13427734 368.28149414 C197.12860494 362.53595603 197.13185184 356.79046491 197.13784981 351.04492855 C197.14151219 346.54974532 197.14029079 342.05457271 197.13772202 337.55938911 C197.13706707 335.44487057 197.13782936 333.33035098 197.14020157 331.21583366 C197.15018169 319.81695861 197.00401635 308.43679768 196.57763672 297.04516602 C196.52348193 295.51989619 196.52348193 295.51989619 196.46823311 293.96381283 C195.72909259 276.12018271 193.28611404 259.88256789 180.3125 246.69921875 C166.82795457 234.4348526 149.07556756 233.26990909 131.61376953 232.55273438 C128.75707012 232.40522286 125.91345284 232.16632459 123.0625 231.93359375 C112.51144614 230.8632881 112.51144614 230.8632881 103.1484375 234.63671875 C101.13216262 237.79624228 99.60917934 241.03326559 98.00390625 244.41796875 C96.39062177 246.72826791 94.60097283 248.8544431 92.75390625 250.98046875 C92.05938354 251.79028198 92.05938354 251.79028198 91.35083008 252.61645508 C69.48353472 277.63179948 36.06935102 294.77194548 2.84234619 297.6020813 C-2.49846536 297.89600486 -7.83638981 297.89862446 -13.18359375 297.85546875 C-13.99691162 297.85209503 -14.81022949 297.84872131 -15.64819336 297.84524536 C-28.16707819 297.77011362 -39.93658999 297.00960921 -51.99609375 293.41796875 C-52.82351074 293.18722656 -53.65092773 292.95648438 -54.50341797 292.71875 C-73.20997067 287.43492641 -91.10870004 279.05520677 -105.99609375 266.41796875 C-106.85074219 265.70125 -107.70539063 264.98453125 -108.5859375 264.24609375 C-118.13828833 255.94482122 -126.0909551 247.08136554 -132.50976562 236.19287109 C-133.76647118 234.07346982 -133.76647118 234.07346982 -135.99609375 231.41796875 C-138.61970417 231.20146677 -141.16883803 231.42069043 -143.80078125 231.4621582 Z " fill="#2F1B0D" transform="translate(522.99609375,163.58203125)"/>
<path d="M0 0 C31.28229273 -0.93535095 60.89392652 10.42832066 83.734375 31.83203125 C84.48203125 32.54746094 85.2296875 33.26289063 86 34 C86.68578125 34.62261719 87.3715625 35.24523437 88.078125 35.88671875 C106.65934882 53.33404899 117.72557185 80.83745348 119 106 C119.03399902 106.66789551 119.06799805 107.33579102 119.10302734 108.02392578 C120.38517676 137.33112795 111.51350185 162.79737868 91.69140625 184.53125 C68.9089 208.15215248 38.18834547 219.49950798 5.71118164 220.21777344 C-23.74575711 220.56791445 -54.75860055 212.12886509 -77 192 C-78.20269531 191.00806641 -78.20269531 191.00806641 -79.4296875 189.99609375 C-97.90150923 174.37273051 -109.99125816 152.01072212 -113 128 C-113.31969779 122.78885539 -113.39008859 117.59344378 -113.375 112.375 C-113.37445618 111.66723419 -113.37391235 110.95946838 -113.37335205 110.23025513 C-113.33485218 99.33186562 -112.63186101 89.36873899 -109 79 C-108.77505859 78.35337402 -108.55011719 77.70674805 -108.31835938 77.04052734 C-97.78612255 47.36602264 -76.5284738 23.63492448 -48.13720703 10.11279297 C-32.26733831 2.809444 -32.26733831 2.809444 -26.25390625 3.16015625 C-23.56469682 4.16220136 -22.65556273 5.1604942 -20.9375 7.4375 C-12.12456491 18.03197465 1.9790612 29.49469461 16.18359375 31.2734375 C20.39065859 31.46301061 22.44674578 31.36130888 26.0625 29 C28.74919973 24.83994881 28.6995733 22.89701312 28 18 C25.40631296 13.63788998 21.33732664 13.15912441 16.734375 11.90625 C9.73389899 9.58609224 4.38157843 5.9021262 0 0 Z " fill="#FDC233" transform="translate(505,223)"/>
<path d="M0 0 C1.46566406 -0.00386719 1.46566406 -0.00386719 2.9609375 -0.0078125 C3.98445312 -0.00007812 5.00796875 0.00765625 6.0625 0.015625 C7.08601562 0.00789062 8.10953125 0.00015625 9.1640625 -0.0078125 C10.14117188 -0.00523437 11.11828125 -0.00265625 12.125 0 C13.02347656 0.00225586 13.92195312 0.00451172 14.84765625 0.00683594 C17.0625 0.265625 17.0625 0.265625 19.0625 2.265625 C19.23803419 5.35087439 19.29372797 8.34526702 19.2578125 11.4296875 C19.2549826 12.33689545 19.25215271 13.24410339 19.24923706 14.17880249 C19.23802153 17.08287623 19.21291463 19.98664412 19.1875 22.890625 C19.17747197 24.85676639 19.16834581 26.8229126 19.16015625 28.7890625 C19.13807772 33.61470159 19.10353865 38.4401114 19.0625 43.265625 C19.7225 43.265625 20.3825 43.265625 21.0625 43.265625 C21.0625 42.605625 21.0625 41.945625 21.0625 41.265625 C29.7646271 34.61868111 40.10290292 30.86990207 51.0625 32.265625 C63.47512943 34.83692185 73.76200084 40.75219222 81.0625 51.265625 C86.51546625 60.59737556 89.45666424 69.23477855 89.375 80.015625 C89.36936035 80.80203369 89.3637207 81.58844238 89.35791016 82.39868164 C89.0802903 95.83300883 84.73201143 108.59611357 75.0625 118.265625 C66.19687941 125.83139896 55.59453291 130.1633451 43.8203125 129.6484375 C34.83203543 128.40077298 27.92789125 125.05571401 21.0625 119.265625 C19.5775 118.275625 19.5775 118.275625 18.0625 117.265625 C18.10375 118.544375 18.145 119.823125 18.1875 121.140625 C18.2578125 123.3203125 18.2578125 123.3203125 18.0625 125.265625 C15.61899051 127.70913449 14.94933648 127.52189616 11.59765625 127.53125 C10.71529297 127.53382813 9.83292969 127.53640625 8.92382812 127.5390625 C8.00021484 127.53132812 7.07660156 127.52359375 6.125 127.515625 C5.20525391 127.52335938 4.28550781 127.53109375 3.33789062 127.5390625 C2.45423828 127.53648437 1.57058594 127.53390625 0.66015625 127.53125 C-0.14929443 127.52899414 -0.95874512 127.52673828 -1.79272461 127.52441406 C-3.9375 127.265625 -3.9375 127.265625 -6.9375 125.265625 C-7.31223011 123.10417938 -7.31223011 123.10417938 -7.3117218 120.36901855 C-7.31873611 119.3342186 -7.32575043 118.29941864 -7.33297729 117.23326111 C-7.32533356 116.09345291 -7.31768982 114.95364471 -7.30981445 113.77929688 C-7.31346512 112.58252823 -7.31711578 111.38575958 -7.32087708 110.15272522 C-7.32760773 106.86541805 -7.32084933 103.57867405 -7.30754495 100.29142189 C-7.29624808 96.85569831 -7.30033658 93.41998974 -7.30229187 89.98425293 C-7.30317541 84.21389906 -7.29208206 78.44366254 -7.27368164 72.67333984 C-7.25251304 65.99657988 -7.24900375 59.31999189 -7.2552436 52.64320517 C-7.26093317 46.22741004 -7.25529643 39.81167565 -7.24407005 33.39588928 C-7.23941864 30.66226583 -7.23855255 27.92867944 -7.2406559 25.1950531 C-7.24288475 21.38062099 -7.22844802 17.56635331 -7.2121582 13.75195312 C-7.21463562 12.61214493 -7.21711304 11.47233673 -7.21966553 10.29798889 C-7.20903831 8.74578896 -7.20903831 8.74578896 -7.19819641 7.16223145 C-7.19614354 6.25962837 -7.19409067 5.3570253 -7.19197559 4.42707062 C-6.65666337 -0.11972403 -3.89025689 0.0097675 0 0 Z " fill="#191816" transform="translate(655.9375,707.734375)"/>
<path d="M0 0 C0.78117187 0.00064453 1.56234375 0.00128906 2.3671875 0.00195312 C3.57761719 0.02612305 3.57761719 0.02612305 4.8125 0.05078125 C5.61945313 0.04755859 6.42640625 0.04433594 7.2578125 0.04101562 C11.45341255 0.0790945 14.06482847 0.39601636 17.8125 2.36328125 C17.85917541 18.62670628 17.89446691 34.89010966 17.91612434 51.15358543 C17.92644656 58.70462658 17.94052488 66.25562616 17.96337891 73.80664062 C17.98328393 80.38642231 17.99620956 86.96617391 18.00067699 93.54598486 C18.00328929 97.03147139 18.00944878 100.5168718 18.02396011 104.00233078 C18.04001037 107.88877757 18.04048155 111.77513934 18.03955078 115.66162109 C18.04674133 116.82327286 18.05393188 117.98492462 18.06134033 119.18177795 C18.058591 120.23629654 18.05584167 121.29081512 18.05300903 122.37728882 C18.05485262 123.29723822 18.05669621 124.21718761 18.05859566 125.16501427 C17.8125 127.36328125 17.8125 127.36328125 15.8125 129.36328125 C12.33196051 129.81355804 8.81883808 129.68736097 5.3125 129.67578125 C3.84876953 129.69995117 3.84876953 129.69995117 2.35546875 129.72460938 C1.42347656 129.72525391 0.49148438 129.72589844 -0.46875 129.7265625 C-1.75362305 129.73103394 -1.75362305 129.73103394 -3.06445312 129.7355957 C-3.76505859 129.61273193 -4.46566406 129.48986816 -5.1875 129.36328125 C-7.6169516 125.71910385 -7.34929575 123.65086853 -7.1875 119.36328125 C-8.18716797 120.15992188 -8.18716797 120.15992188 -9.20703125 120.97265625 C-19.31821216 128.72220469 -28.28819745 132.75030303 -41.1875 131.36328125 C-52.60976017 129.43663496 -61.73020557 123.04873779 -68.5390625 113.8359375 C-74.8452246 104.37669436 -77.75813211 94.41561425 -77.625 83.05078125 C-77.61742676 82.13651367 -77.60985352 81.22224609 -77.60205078 80.28027344 C-77.32230989 68.71901117 -74.2733945 59.51900283 -67.1875 50.36328125 C-66.465625 49.33203125 -65.74375 48.30078125 -65 47.23828125 C-58.23941955 39.45928003 -48.13125744 35.05679011 -38.05859375 34.05078125 C-28.42465567 33.6868072 -20.71434113 35.60773231 -13.0168457 41.45458984 C-12.29898392 41.99828217 -11.58112213 42.54197449 -10.84150696 43.10214233 C-10.02277351 43.7264061 -10.02277351 43.7264061 -9.1875 44.36328125 C-9.1781543 43.13697998 -9.16880859 41.91067871 -9.15917969 40.6472168 C-9.11933536 36.10143582 -9.05359244 31.55633563 -8.97998047 27.01098633 C-8.95173851 25.04297627 -8.93054006 23.0748521 -8.91650391 21.10668945 C-8.89511879 18.27886395 -8.8484926 15.4524151 -8.796875 12.625 C-8.79564636 11.74365891 -8.79441772 10.86231781 -8.79315186 9.95426941 C-8.64757448 3.89581936 -8.64757448 3.89581936 -6.41113281 1.30712891 C-4.08215976 0.31856832 -2.51994299 -0.01061451 0 0 Z " fill="#191816" transform="translate(418.1875,705.63671875)"/>
<path d="M0 0 C2.63500514 1.02203455 4.97128553 2.06308833 7.453125 3.3671875 C8.14593567 3.71717804 8.83874634 4.06716858 9.55255127 4.42776489 C11.79214868 5.5634628 14.02091541 6.7188249 16.25 7.875 C17.80606116 8.66910525 19.36270568 9.46206839 20.91992188 10.25390625 C29.17851606 14.46448872 37.40285803 18.74236778 45.57910156 23.11083984 C52.89448798 26.99886229 60.313501 30.6767144 67.72888184 34.36901855 C89.47977435 45.20062399 89.47977435 45.20062399 98.25 49.75 C99.33667969 50.30397461 99.33667969 50.30397461 100.4453125 50.86914062 C104.78608502 53.14509042 108.45067776 55.5969857 112 59 C112.6875 62.5 112.6875 62.5 112 66 C108.60944764 69.95996993 105.13739963 72.24356156 100.50390625 74.56640625 C99.88323776 74.88156693 99.26256927 75.1967276 98.62309265 75.5214386 C97.29620127 76.19413697 95.96713881 76.86256744 94.6361084 77.52703857 C91.09770511 79.29394891 87.57539168 81.09249843 84.05078125 82.88671875 C83.34915863 83.24280212 82.64753601 83.5988855 81.9246521 83.96575928 C76.3037276 86.82488235 70.76305372 89.8129734 65.25 92.875 C54.20130398 98.98416619 42.96847536 104.72817906 31.72485352 110.46777344 C25.36636736 113.71538988 19.01411559 116.96193343 12.7421875 120.375 C11.86522217 120.85050293 10.98825684 121.32600586 10.0847168 121.81591797 C8.55160354 122.65312678 7.0238113 123.50020257 5.50317383 124.35986328 C1.52673681 126.52723351 -1.46656622 127.8056596 -6 127 C-8.48453627 125.00794601 -9.83058081 123.79803387 -10.50057125 120.64210415 C-10.50078053 119.76476651 -10.50098982 118.88742887 -10.50120544 117.98350525 C-10.51103958 116.97264359 -10.52087372 115.96178192 -10.53100586 114.92028809 C-10.52133789 113.8172937 -10.51166992 112.71429932 -10.50170898 111.57788086 C-10.50981346 109.82859032 -10.50981346 109.82859032 -10.51808167 108.04396057 C-10.53060279 104.18399789 -10.51405534 100.32477606 -10.49609375 96.46484375 C-10.49624865 93.78730757 -10.49768204 91.10979815 -10.50050354 88.43226624 C-10.50320481 82.81925782 -10.48973615 77.20646336 -10.46655273 71.59350586 C-10.43993035 65.10298151 -10.43820019 58.61281457 -10.4499411 52.12225431 C-10.46071685 45.87836248 -10.45453432 39.63460001 -10.44038582 33.39071846 C-10.43586032 30.7332961 -10.43554405 28.07586321 -10.43945122 25.41843987 C-10.44235163 21.70964653 -10.42591203 18.00144348 -10.40405273 14.29272461 C-10.40855438 13.18770599 -10.41305603 12.08268738 -10.41769409 10.94418335 C-10.40778946 9.93614151 -10.39788483 8.92809967 -10.38768005 7.88951111 C-10.38525016 7.0125505 -10.38282026 6.13558989 -10.38031673 5.23205471 C-9.37960943 -0.64103275 -5.15198893 -0.54263 0 0 Z " fill="#F5F4F3" transform="translate(461,473)"/>
<path d="M0 0 C1.11246094 -0.00257813 2.22492188 -0.00515625 3.37109375 -0.0078125 C4.53769531 -0.00007812 5.70429688 0.00765625 6.90625 0.015625 C8.07285156 0.00789062 9.23945313 0.00015625 10.44140625 -0.0078125 C11.55386719 -0.00523437 12.66632813 -0.00265625 13.8125 0 C14.83666016 0.00225586 15.86082031 0.00451172 16.91601562 0.00683594 C19.40625 0.265625 19.40625 0.265625 21.40625 2.265625 C21.6847229 4.36636353 21.6847229 4.36636353 21.72509766 6.99072266 C21.74496735 7.97158844 21.76483704 8.95245422 21.78530884 9.96304321 C21.79686005 11.02453583 21.80841125 12.08602844 21.8203125 13.1796875 C21.83967865 14.26446381 21.8590448 15.34924011 21.8789978 16.46688843 C21.93891426 19.94138659 21.98522739 23.41591767 22.03125 26.890625 C22.06941865 29.24220218 22.10846971 31.59376521 22.1484375 33.9453125 C22.24462559 39.7186247 22.32963753 45.49202166 22.40625 51.265625 C24.47777824 48.88386708 26.54762271 46.50065159 28.6171875 44.1171875 C29.19847412 43.44888916 29.77976074 42.78059082 30.37866211 42.09204102 C34.39520845 37.4640965 38.3067819 32.76936401 42.1640625 28.0078125 C45.16260725 24.34060272 48.23020875 20.73415935 51.30102539 17.12744141 C55.15867729 12.58654302 58.90910516 7.9672963 62.62890625 3.3125 C64.40625 1.265625 64.40625 1.265625 66.40625 0.265625 C70.9015718 0.02140326 75.40504236 0.08042388 79.90625 0.078125 C81.16824219 0.06587891 82.43023437 0.05363281 83.73046875 0.04101562 C84.93316406 0.03908203 86.13585937 0.03714844 87.375 0.03515625 C89.03692383 0.02899292 89.03692383 0.02899292 90.73242188 0.02270508 C93.40625 0.265625 93.40625 0.265625 95.40625 2.265625 C95.37823216 7.50496031 91.92132053 10.55679076 88.59375 14.203125 C87.40055779 15.54384035 86.20786027 16.88499611 85.015625 18.2265625 C84.41041016 18.90170898 83.80519531 19.57685547 83.18164062 20.27246094 C80.52566819 23.25422097 77.93355988 26.28892597 75.34375 29.328125 C72.28389028 32.91008951 69.21823485 36.48636209 66.12890625 40.04296875 C65.58951416 40.6661499 65.05012207 41.28933105 64.49438477 41.93139648 C63.47023513 43.11424601 62.44356295 44.2949184 61.41381836 45.47290039 C58.44028384 48.91472424 55.85483566 52.43104746 53.40625 56.265625 C53.73197998 56.71139893 54.05770996 57.15717285 54.39331055 57.61645508 C61.30553756 67.09198135 68.07393592 76.64439806 74.65771484 86.35107422 C78.08007815 91.3783507 81.59703949 96.31780616 85.21875 101.203125 C86.95186938 103.55440911 88.68097558 105.90857889 90.40625 108.265625 C90.82374512 108.83458496 91.24124023 109.40354492 91.67138672 109.98974609 C92.84980462 111.61129773 94.00365207 113.25061998 95.15625 114.890625 C95.81109375 115.81101562 96.4659375 116.73140625 97.140625 117.6796875 C98.63563801 120.73431284 98.43948064 122.0855707 97.40625 125.265625 C92.54682848 126.88543217 87.55696595 126.45014769 82.46875 126.453125 C81.37111328 126.46537109 80.27347656 126.47761719 79.14257812 126.49023438 C77.55799805 126.49313477 77.55799805 126.49313477 75.94140625 126.49609375 C74.975979 126.50020264 74.01055176 126.50431152 73.01586914 126.50854492 C69.53820073 126.18482146 67.40608415 125.37852164 65.05688477 122.76367188 C64.65783936 122.17650391 64.25879395 121.58933594 63.84765625 120.984375 C63.38584961 120.31615723 62.92404297 119.64793945 62.44824219 118.95947266 C61.71589355 117.87351807 61.71589355 117.87351807 60.96875 116.765625 C59.90339525 115.22062858 58.83695143 113.67638267 57.76953125 112.1328125 C57.21861816 111.33198242 56.66770508 110.53115234 56.10009766 109.70605469 C53.33941578 105.72857183 50.49888722 101.80975404 47.65625 97.890625 C47.11339355 97.14055176 46.57053711 96.39047852 46.01123047 95.61767578 C41.8187672 89.82698773 37.61792121 84.04235832 33.40625 78.265625 C32.23512587 79.43674913 31.06618665 80.61012297 29.90707397 81.7931366 C28.40625 83.265625 28.40625 83.265625 26.83633423 84.58052063 C23.64828301 87.36535834 22.50841052 88.72497576 21.69677734 93.02026367 C21.68300062 94.40805453 21.6995019 95.79639109 21.7421875 97.18359375 C21.735858 98.29218498 21.735858 98.29218498 21.72940063 99.423172 C21.71858807 101.7675316 21.74652625 104.10903062 21.78125 106.453125 C21.80530651 108.80753561 21.82049337 111.16068641 21.81167603 113.51521301 C21.80710154 114.9754824 21.82179693 116.43597006 21.85800171 117.89579773 C21.85632289 121.04460827 21.81304778 122.80617533 19.68408203 125.21069336 C17.11820751 126.39902603 15.38356694 126.65260805 12.5625 126.6640625 C11.64597656 126.66792969 10.72945312 126.67179688 9.78515625 126.67578125 C8.83511719 126.66417969 7.88507813 126.65257812 6.90625 126.640625 C5.95621094 126.65222656 5.00617188 126.66382813 4.02734375 126.67578125 C2.65255859 126.66998047 2.65255859 126.66998047 1.25 126.6640625 C0.41662109 126.66067871 -0.41675781 126.65729492 -1.27539062 126.65380859 C-4.19128075 126.1655751 -5.45123829 125.29287723 -7.59375 123.265625 C-8.09152794 121.01236629 -8.09152794 121.01236629 -8.08822632 118.32469177 C-8.0966153 117.30534546 -8.10500427 116.28599915 -8.11364746 115.23576355 C-8.10240845 114.11825211 -8.09116943 113.00074066 -8.07958984 111.84936523 C-8.08338654 110.6719577 -8.08718323 109.49455017 -8.09109497 108.28146362 C-8.09724021 105.05202151 -8.0854823 101.82325232 -8.06518888 98.59388614 C-8.04763003 95.21689904 -8.05114271 91.83992932 -8.0519104 88.46290588 C-8.05003717 82.79264064 -8.03266916 77.12258942 -8.00537109 71.45239258 C-7.9739048 64.89205302 -7.9633754 58.33194777 -7.9648422 51.7715382 C-7.96606189 45.4651879 -7.95586001 39.15891408 -7.93925858 32.85258675 C-7.93218853 30.16641709 -7.92853146 27.4802745 -7.92747116 24.79409599 C-7.9231541 21.04677305 -7.90568768 17.29974932 -7.88427734 13.55249023 C-7.88518372 12.43295456 -7.88609009 11.31341888 -7.88702393 10.15995789 C-7.87849396 9.1434314 -7.86996399 8.12690491 -7.86117554 7.07957458 C-7.85782385 6.19301902 -7.85447216 5.30646345 -7.85101891 4.39304256 C-7.27005362 -0.41109709 -4.03264042 0.00888247 0 0 Z " fill="#191816" transform="translate(194.59375,708.734375)"/>
<path d="M0 0 C10.68350449 6.97102721 17.16259364 17.64237981 20.38671875 29.8671875 C21.43728512 35.55260551 22.20040585 41.80612394 21.07421875 47.4921875 C17.36722872 50.33879828 14.61063916 50.86189121 9.9987793 50.83276367 C8.1974781 50.83242378 8.1974781 50.83242378 6.35978699 50.83207703 C5.07316666 50.81659317 3.78654633 50.80110931 2.4609375 50.78515625 C1.1228737 50.77955619 -0.21519627 50.77528803 -1.55326843 50.77229309 C-5.06329537 50.76087642 -8.57294581 50.73143737 -12.08282471 50.69818115 C-15.66909697 50.66741121 -19.25543047 50.65377303 -22.84179688 50.63867188 C-29.86994565 50.60656405 -36.89784534 50.55540667 -43.92578125 50.4921875 C-43.29657357 51.93460044 -42.66451155 53.37576848 -42.03125 54.81640625 C-41.67957764 55.61908936 -41.32790527 56.42177246 -40.96557617 57.2487793 C-38.38097561 62.82518094 -35.15554551 65.50321999 -29.55078125 67.76171875 C-22.01581286 69.85850311 -14.78451698 69.20280536 -7.81640625 65.71875 C-5.64136104 64.41088 -5.64136104 64.41088 -3.23828125 61.6796875 C-2.09359375 60.596875 -2.09359375 60.596875 -0.92578125 59.4921875 C3.9057383 59.71363215 6.67043778 61.24209421 10.38671875 64.2421875 C11.24910156 64.91765625 12.11148438 65.593125 13 66.2890625 C15.35449268 68.78987958 15.98704368 70.07601445 16.07421875 73.4921875 C12.11400101 81.78893327 1.23699025 86.45115498 -6.92578125 89.4921875 C-18.80947541 92.27087124 -34.08601327 92.37977721 -44.92578125 86.4921875 C-45.78042969 86.06808594 -46.63507812 85.64398437 -47.515625 85.20703125 C-58.17102008 79.45472022 -64.49740968 70.68237725 -68.671875 59.4921875 C-72.42867243 46.22680624 -70.68553634 30.75716532 -64.46484375 18.6484375 C-63.03969729 16.18879387 -61.53253021 13.83609876 -59.92578125 11.4921875 C-59.34828125 10.6053125 -58.77078125 9.7184375 -58.17578125 8.8046875 C-42.85426038 -6.94243117 -19.43564914 -10.01623574 0 0 Z " fill="#191815" transform="translate(822.92578125,745.5078125)"/>
<path d="M0 0 C1.02673828 -0.00128906 2.05347656 -0.00257813 3.11132812 -0.00390625 C4.18705078 -0.00003906 5.26277344 0.00382813 6.37109375 0.0078125 C7.45068359 0.00394531 8.53027344 0.00007812 9.64257812 -0.00390625 C11.18075195 -0.00197266 11.18075195 -0.00197266 12.75 0 C13.69560791 0.00112793 14.64121582 0.00225586 15.61547852 0.00341797 C17.80859375 0.1328125 17.80859375 0.1328125 18.80859375 1.1328125 C18.91603659 2.84460527 18.9548409 4.5607559 18.96630859 6.27587891 C18.97657074 7.37437164 18.98683289 8.47286438 18.99740601 9.60464478 C19.00470734 10.80245575 19.01200867 12.00026672 19.01953125 13.234375 C19.04761099 15.75130846 19.07627552 18.26823546 19.10546875 20.78515625 C19.14667672 24.76810273 19.18354733 28.75081289 19.20996094 32.73388672 C19.23761393 36.56763986 19.28350227 40.40083681 19.33203125 44.234375 C19.33528412 45.42004059 19.33853699 46.60570618 19.34188843 47.82730103 C19.45287065 55.31303511 19.74124785 60.98474697 25.18359375 66.5703125 C30.6914369 68.94438282 35.90238974 68.87672369 41.80859375 68.1328125 C46.36302189 66.01264768 48.70141759 63.67987684 50.80859375 59.1328125 C51.65032127 55.6540779 51.94468796 52.39688287 51.98217773 48.82348633 C51.99566757 47.78924026 52.00915741 46.7549942 52.02305603 45.68940735 C52.03349442 44.58405136 52.0439328 43.47869537 52.0546875 42.33984375 C52.08760046 39.99543862 52.1208125 37.65103767 52.15429688 35.30664062 C52.20187482 31.61306399 52.24636645 27.91950732 52.28540039 24.22583008 C52.32494475 20.65949673 52.37650227 17.093496 52.4296875 13.52734375 C52.43810165 12.41591507 52.44651581 11.30448639 52.45518494 10.15937805 C52.47182693 9.13458847 52.48846893 8.10979889 52.50561523 7.05395508 C52.5159227 6.14970291 52.52623016 5.24545074 52.53684998 4.313797 C52.80859375 2.1328125 52.80859375 2.1328125 54.80859375 0.1328125 C57.0234375 -0.11010742 57.0234375 -0.11010742 59.74609375 -0.09765625 C61.21175781 -0.09475586 61.21175781 -0.09475586 62.70703125 -0.09179688 C63.73054687 -0.07955078 64.7540625 -0.06730469 65.80859375 -0.0546875 C66.83210937 -0.05404297 67.855625 -0.05339844 68.91015625 -0.05273438 C76.52794872 -0.00751001 76.52794872 -0.00751001 78.80859375 1.1328125 C78.87799549 12.70239134 78.93135492 24.27192095 78.96403027 35.84166527 C78.97970998 41.21352853 79.00099022 46.58524975 79.03491211 51.95703125 C79.06742346 57.1376549 79.08542938 62.31814164 79.09322548 67.49885941 C79.09878381 69.47889996 79.10963735 71.45893273 79.12578392 73.43891525 C79.147449 76.20472366 79.15056528 78.96996073 79.14916992 81.73583984 C79.15995575 82.56086502 79.17074158 83.3858902 79.18185425 84.23591614 C79.1693573 86.51351929 79.1693573 86.51351929 78.80859375 90.1328125 C75.69642636 92.20759076 74.96798867 92.38803838 71.4296875 92.3984375 C70.17188477 92.40230469 70.17188477 92.40230469 68.88867188 92.40625 C68.01662109 92.39851562 67.14457031 92.39078125 66.24609375 92.3828125 C64.9322168 92.39441406 64.9322168 92.39441406 63.59179688 92.40625 C62.75455078 92.40367187 61.91730469 92.40109375 61.0546875 92.3984375 C60.28825928 92.39618164 59.52183105 92.39392578 58.73217773 92.39160156 C56.80859375 92.1328125 56.80859375 92.1328125 54.80859375 90.1328125 C54.24339372 87.47743878 54.07071177 84.84136537 53.80859375 82.1328125 C53.18984375 82.71289062 53.18984375 82.71289062 52.55859375 83.3046875 C41.97197682 92.85154741 31.60985881 93.82970806 17.80859375 93.1328125 C9.72337482 92.06650102 4.08214945 87.12423442 -1.19140625 81.1328125 C-5.71729357 74.14202545 -7.32102231 67.88508349 -7.30493164 59.59838867 C-7.30485611 58.29741745 -7.30478058 56.99644623 -7.30470276 55.65605164 C-7.29959687 54.24596111 -7.29438089 52.83587099 -7.2890625 51.42578125 C-7.28719604 49.97561187 -7.28577321 48.52544185 -7.28477478 47.07527161 C-7.28096755 43.26948284 -7.27115267 39.46373259 -7.2600708 35.65795898 C-7.24981802 31.77002483 -7.24526889 27.88208442 -7.24023438 23.99414062 C-7.22952871 16.37368041 -7.21247395 8.75325186 -7.19140625 1.1328125 C-4.64865076 -0.13856524 -2.84332424 0.0033875 0 0 Z " fill="#191815" transform="translate(553.19140625,742.8671875)"/>
<path d="M0 0 C0.87798752 0.00404846 1.75597504 0.00809692 2.66056824 0.01226807 C4.04607124 0.00701111 4.04607124 0.00701111 5.45956421 0.00164795 C8.52338601 -0.00717963 11.58697832 -0.00131658 14.65080261 0.00543213 C16.77307683 0.00408577 18.89535074 0.00214549 21.0176239 -0.00036621 C25.46976146 -0.00331887 29.92181888 0.00098473 34.37394714 0.01031494 C40.09087248 0.02170952 45.80761006 0.01515081 51.5245285 0.00317001 C55.90816166 -0.00404475 60.29175004 -0.00176242 64.67538452 0.0034256 C66.78379336 0.00476316 68.89220621 0.00311069 71.00061035 -0.00153351 C73.94336268 -0.00659244 76.88580765 0.00110259 79.82853699 0.01226807 C80.70652451 0.0082196 81.58451202 0.00417114 82.48910522 0 C88.51602495 0.04252947 88.51602495 0.04252947 90.74455261 2.27105713 C91.19324923 5.56349317 91.06863504 8.88903456 91.05705261 12.20855713 C91.07316589 13.12830322 91.08927917 14.04804932 91.10588074 14.9956665 C91.10652527 15.87931885 91.1071698 16.76297119 91.10783386 17.67340088 C91.11081482 18.48285156 91.11379578 19.29230225 91.11686707 20.12628174 C90.62745253 22.94563041 90.09016811 23.61435422 87.74455261 25.27105713 C85.08620634 25.53259836 82.66770157 25.62044835 80.01408386 25.56402588 C79.26366318 25.55978104 78.51324249 25.55553619 77.74008179 25.55116272 C75.34537236 25.53438163 72.95150728 25.49673203 70.55705261 25.45855713 C68.93271582 25.44350948 67.30836582 25.42982121 65.68400574 25.4175415 C61.70386314 25.38448018 57.72435099 25.33270306 53.74455261 25.27105713 C53.75121445 26.50689545 53.75787628 27.74273376 53.76473999 29.01602173 C53.82545525 40.64112576 53.87047907 52.26619779 53.89998913 63.89142418 C53.91567036 69.86862145 53.93695344 75.84569112 53.97087097 81.82281494 C54.00337678 87.58698411 54.02138709 93.35103025 54.02918434 99.11528397 C54.03474366 101.31860924 54.04559906 103.52192751 54.06174278 105.72520065 C54.0834003 108.80232241 54.08652443 111.87893049 54.08512878 114.95611572 C54.09591461 115.87464828 54.10670044 116.79318085 54.11781311 117.73954773 C54.11162712 118.9931736 54.11162712 118.9931736 54.10531616 120.27212524 C54.10808154 121.0003417 54.11084692 121.72855816 54.1136961 122.47884178 C53.74455261 124.27105713 53.74455261 124.27105713 50.74455261 126.27105713 C48.52384949 126.52984619 48.52384949 126.52984619 45.96330261 126.53668213 C45.0390448 126.53926025 44.11478699 126.54183838 43.16252136 126.54449463 C42.19959167 126.53676025 41.23666199 126.52902588 40.24455261 126.52105713 C38.80015808 126.53265869 38.80015808 126.53265869 37.32658386 126.54449463 C36.40232605 126.5419165 35.47806824 126.53933838 34.52580261 126.53668213 C33.68082214 126.53442627 32.83584167 126.53217041 31.96525574 126.52984619 C29.74455261 126.27105713 29.74455261 126.27105713 26.74455261 124.27105713 C26.37540913 122.47884178 26.37540913 122.47884178 26.38378906 120.27212524 C26.37966507 119.43637466 26.37554108 118.60062408 26.37129211 117.73954773 C26.38207794 116.82101517 26.39286377 115.9024826 26.40397644 114.95611572 C26.40331932 113.50727242 26.40331932 113.50727242 26.40264893 112.02915955 C26.40474461 108.82573467 26.42811254 105.62282845 26.45158386 102.41949463 C26.45717704 100.20275153 26.46144845 97.98600472 26.46444702 95.76925659 C26.47591767 89.9264304 26.50540401 84.08382689 26.53855896 78.24108887 C26.56921201 72.28235894 26.58294216 66.32359313 26.59806824 60.36480713 C26.63027153 48.66679247 26.6814947 36.96894329 26.74455261 25.27105713 C25.75535828 25.28153076 24.76616394 25.29200439 23.74699402 25.30279541 C20.08313098 25.33894732 16.41928375 25.36193995 12.7552948 25.38092041 C11.16835378 25.39098901 9.58143136 25.4046448 7.99455261 25.42193604 C5.71586014 25.44614714 3.43741256 25.45753135 1.15861511 25.46636963 C0.44710297 25.4766922 -0.26440918 25.48701477 -0.9974823 25.49765015 C-2.75176404 25.49805135 -4.50541448 25.39307922 -6.25544739 25.27105713 C-8.7460199 22.78048462 -8.51202868 21.98633054 -8.52107239 18.55230713 C-8.52365051 17.62031494 -8.52622864 16.68832275 -8.52888489 15.72808838 C-8.52115051 14.75226807 -8.51341614 13.77644775 -8.50544739 12.77105713 C-8.51318176 11.79523682 -8.52091614 10.8194165 -8.52888489 9.81402588 C-8.52630676 8.88203369 -8.52372864 7.9500415 -8.52107239 6.98980713 C-8.51881653 6.1332251 -8.51656067 5.27664307 -8.51423645 4.394104 C-7.89862422 -0.65623933 -4.21291454 0.02972879 0 0 Z " fill="#191715" transform="translate(456.2554473876953,708.7289428710938)"/>
<path d="M0 0 C2.8100346 1.79363911 4.50940468 3.01880935 6 6 C6.68552912 13.9521378 4.86853625 18.55674823 -0.22265625 24.66796875 C-13.3694763 38.7054423 -29.47472893 44.97838022 -48.62109375 46.23828125 C-66.85103105 46.59280408 -84.61357846 41.64463034 -98.625 29.5 C-100.11558145 28.0320412 -101.57707355 26.53362851 -103 25 C-103.62777344 24.3296875 -104.25554687 23.659375 -104.90234375 22.96875 C-108.2592984 18.98779672 -110.06239125 15.38282279 -110.28125 10.12109375 C-109.89886968 7.23730884 -108.85288514 5.10474897 -106.79296875 3.0390625 C-103.04796629 0.86875606 -99.12683838 1.10494068 -95 2 C-92.22019859 4.02167375 -90.62436296 6.07013834 -88.72265625 8.90234375 C-82.14004112 18.40246143 -72.21755161 22.9222433 -61 25 C-46.71296677 26.45971442 -33.02412055 24.9715821 -21.21875 16.13671875 C-17.94690618 12.98584099 -15.76757801 9.40599462 -13.5703125 5.453125 C-10.18050376 0.1576029 -6.15616466 -1.13595895 0 0 Z " fill="#2F1A0D" transform="translate(561,348)"/>
<path d="M0 0 C1.31387695 -0.00580078 1.31387695 -0.00580078 2.65429688 -0.01171875 C3.56115234 -0.00011719 4.46800781 0.01148438 5.40234375 0.0234375 C6.76842773 0.00603516 6.76842773 0.00603516 8.16210938 -0.01171875 C9.47405273 -0.00591797 9.47405273 -0.00591797 10.8125 0 C12.00758179 0.00507568 12.00758179 0.00507568 13.22680664 0.01025391 C16.03016171 0.52525501 16.6918627 1.05262167 18.33984375 3.3984375 C18.63596919 6.17157407 18.74964268 8.72022673 18.72802734 11.49414062 C18.7332843 12.31881332 18.73854126 13.14348602 18.74395752 13.9931488 C18.75717351 16.72218706 18.7484139 19.45064319 18.73828125 22.1796875 C18.74030153 24.07393506 18.74321258 25.96818186 18.74697876 27.86242676 C18.75140428 31.83365275 18.74496373 35.80467641 18.73095703 39.77587891 C18.71386503 44.87061925 18.72370499 49.96488551 18.74167442 55.05960846 C18.75250611 58.97149234 18.74906875 62.88326351 18.74129105 66.79515076 C18.73928734 68.6738643 18.74175429 70.55258801 18.74872971 72.43128967 C18.75633409 75.05538101 18.74475451 77.67870063 18.72802734 80.30273438 C18.73410004 81.08204819 18.74017273 81.861362 18.74642944 82.66429138 C18.68438523 87.90824597 18.68438523 87.90824597 16.94764709 90.37916565 C13.54247687 92.53788373 9.30448593 91.86631511 5.40234375 91.8359375 C4.49548828 91.85591797 3.58863281 91.87589844 2.65429688 91.89648438 C1.77837891 91.89583984 0.90246094 91.89519531 0 91.89453125 C-0.79784912 91.89638428 -1.59569824 91.8982373 -2.41772461 91.90014648 C-5.6336058 91.1806434 -6.65963595 90.01616414 -8.66015625 87.3984375 C-9.05479256 84.56275368 -9.20768002 82.11533847 -9.17773438 79.28100586 C-9.18474365 78.4659407 -9.19175293 77.65087555 -9.19897461 76.81111145 C-9.21656495 74.11982044 -9.20492964 71.42958274 -9.19140625 68.73828125 C-9.19410061 66.86788226 -9.19798257 64.99748464 -9.20300293 63.12709045 C-9.20889915 59.20885877 -9.20033008 55.29099199 -9.18164062 51.37280273 C-9.15883518 46.34634122 -9.17198336 41.32073324 -9.19593048 36.29430294 C-9.21037168 32.43300421 -9.20579048 28.5719085 -9.19541931 24.71060371 C-9.19274819 22.8570095 -9.19603528 21.00339694 -9.20533752 19.14982414 C-9.21547741 16.56154275 -9.20003976 13.97465217 -9.17773438 11.38647461 C-9.1858313 10.61808258 -9.19392822 9.84969055 -9.20227051 9.05801392 C-9.11940754 3.8777836 -9.11940754 3.8777836 -6.76795959 1.42344666 C-4.34031935 0.24290319 -2.69363044 0.01142406 0 0 Z " fill="#1B1A17" transform="translate(311.66015625,743.6015625)"/>
<path d="M0 0 C6.65898637 4.00795595 9.95618309 8.87042566 11.96875 16.3125 C13.64408096 24.84697584 13.04165209 33.33176859 8.40625 40.84375 C4.92184041 45.41844259 0.18973605 48.22301676 -5.4921875 49.05859375 C-12.10462213 49.49942273 -17.99668007 49.04121635 -23.22265625 44.58203125 C-30.13033308 37.11150668 -31.07789545 29.59090999 -30.83203125 19.6875 C-30.04741814 11.30927497 -26.78340441 6.6685855 -20.39453125 1.37109375 C-14.92855685 -2.40009187 -6.05500484 -2.28723537 0 0 Z " fill="#F4F4F3" transform="translate(398.4921875,764.94140625)"/>
<path d="M0 0 C5.64692576 4.40460209 9.26147244 8.40885269 11.125 15.4375 C11.96379491 24.21558626 11.92673419 32.78427443 7.125 40.4375 C3.35581637 44.79529587 -1.22504189 47.14569923 -6.92578125 47.7734375 C-14.7321271 47.86692667 -20.44377881 47.38015065 -26.3984375 42.08203125 C-32.13393508 35.89896593 -32.2771295 28.65996627 -32.12109375 20.65625 C-31.51978062 12.79145601 -28.86740371 6.67730324 -22.875 1.4375 C-16.34022315 -2.61406165 -7.0089568 -3.61350662 0 0 Z " fill="#F5F4F3" transform="translate(706.875,765.5625)"/>
<path d="M0 0 C5.27838327 2.7944382 9.08864461 6.26593382 11 12 C11.52983207 18.25201845 10.83396749 22.88804335 7 28 C3.73857727 30.93940884 0.36532767 32.229282 -4 32.5 C-8.54465151 32.24408758 -11.33299456 30.6603765 -15 28 C-18.82340556 22.90212592 -19.43433003 18.29778537 -19 12 C-17.10672504 6.7409029 -14.40216785 4.20991406 -10 1 C-6.38069302 -0.20643566 -3.80768995 -0.32268559 0 0 Z " fill="#2F1A0D" transform="translate(556,291)"/>
<path d="M0 0 C3.69090531 2.29629614 7.03451014 5.06902028 9 9 C9.98734177 21.6835443 9.98734177 21.6835443 6 27 C2.34749588 30.46987891 -0.5965683 31.30013186 -5.5 31.5 C-10.4034317 31.30013186 -13.34749588 30.46987891 -17 27 C-20.7577741 21.8643754 -20.83953186 16.13223274 -20 10 C-18.1875 6.5 -18.1875 6.5 -16 4 C-15.484375 3.401875 -14.96875 2.80375 -14.4375 2.1875 C-10.53598476 -1.03549085 -4.73524561 -0.8800014 0 0 Z " fill="#2E1A0D" transform="translate(471,291)"/>
<path d="M0 0 C4.7344316 1.91391916 7.72684393 5.45368786 10 10 C10.40454634 15.25910247 9.79068106 18.51497687 7 23 C4.1463776 26.2995009 2.16115335 27.7730975 -2.26953125 28.23828125 C-9.20222295 28.44061787 -12.66266459 27.10717434 -17.8125 22.3125 C-19.68565243 18.6647821 -20.10659049 15.07886287 -20 11 C-18.6326892 6.81763756 -16.4556821 3.64445225 -12.94140625 0.9140625 C-8.83302594 -1.02026545 -4.40119618 -0.61239886 0 0 Z " fill="#191815" transform="translate(321,706)"/>
<path d="M0 0 C3.63998935 2.16431799 5.64486816 4.51632578 7.5 8.375 C7.995 12.335 7.995 12.335 8.5 16.375 C-4.37 16.375 -17.24 16.375 -30.5 16.375 C-27.11788618 5.10128726 -27.11788618 5.10128726 -23.5 2.3125 C-22.4790625 1.49072266 -22.4790625 1.49072266 -21.4375 0.65234375 C-15.50620689 -3.25800473 -6.32163054 -2.86913929 0 0 Z " fill="#F4F3F3" transform="translate(809.5,762.625)"/>
<path d="M0 0 C10.5044591 2.46533224 10.5044591 2.46533224 14.19140625 7.6875 C17.26907657 13.00640062 17.81519819 17.94715345 17 24 C15.21984261 29.4451873 11.611739 32.78226393 7 36 C3.52674819 37.1577506 0.63932552 37.06866652 -3 37 C-2.86722656 36.34 -2.73445312 35.68 -2.59765625 35 C-0.53157046 23.41785483 -0.35298454 11.73601857 0 0 Z " fill="#FAC433" transform="translate(644,327)"/>
<path d="M0 0 C0.05534912 0.88260498 0.11069824 1.76520996 0.16772461 2.67456055 C0.37563502 5.96413164 0.58658238 9.25347923 0.79956055 12.54272461 C0.89093948 13.96354577 0.98112429 15.38444426 1.07006836 16.80541992 C1.1984813 18.8535705 1.33125463 20.90140006 1.46484375 22.94921875 C1.543396 24.17987061 1.62194824 25.41052246 1.70288086 26.6784668 C1.9577742 29.52795234 2.36873265 32.21363681 3 35 C-2.59588314 35.28944223 -6.18669255 35.20887163 -11 32 C-15.24721272 27.7987031 -17.13969938 24.17130883 -17.25 18.1875 C-17.15999976 11.99548321 -15.65782724 8.62098664 -11.1875 4.25 C-7.6492524 1.75241346 -4.40544087 0 0 0 Z " fill="#FBC333" transform="translate(372,328)"/>
<path d="M0 0 C0.33 0 0.66 0 1 0 C1.33 1.98 1.66 3.96 2 6 C2.33 6 2.66 6 3 6 C3.06940864 16.52650451 3.12276466 27.05295489 3.15543652 37.57964134 C3.17111475 42.46723875 3.19239219 47.35467999 3.22631836 52.2421875 C3.25883513 56.955975 3.27683675 61.66961199 3.28463173 66.38350296 C3.2901891 68.18491614 3.30104082 69.98632077 3.31719017 71.78767014 C3.33886268 74.30443084 3.34197125 76.82056385 3.34057617 79.33740234 C3.35675491 80.46273125 3.35675491 80.46273125 3.3732605 81.61079407 C3.36076355 83.68441772 3.36076355 83.68441772 3 87 C1.515 87.99 1.515 87.99 0 89 C0 59.63 0 30.26 0 0 Z " fill="#40261B" transform="translate(738,482)"/>
<path d="M0 0 C3.56206722 -0.14567407 7.12336551 -0.23419196 10.6875 -0.3125 C12.19860352 -0.3753418 12.19860352 -0.3753418 13.74023438 -0.43945312 C15.20493164 -0.46362305 15.20493164 -0.46362305 16.69921875 -0.48828125 C17.59471436 -0.51446533 18.49020996 -0.54064941 19.4128418 -0.56762695 C23.36651757 0.2998163 24.66604451 1.69995997 27 5 C27.76683524 8.56186741 27.79250968 12.06500399 27.8125 15.69921875 C27.83473633 16.73061478 27.85697266 17.7620108 27.87988281 18.82466125 C27.92137122 20.99888249 27.95089317 23.17336074 27.96923828 25.34790039 C27.99999493 28.68694947 28.07325419 32.02311012 28.15234375 35.36132812 C28.18740998 37.4739181 28.22004642 39.5865501 28.25 41.69921875 C28.27167236 42.70127853 28.29334473 43.70333832 28.31567383 44.73576355 C28.31978271 45.66044937 28.3238916 46.58513519 28.328125 47.5378418 C28.34214355 48.76098335 28.34214355 48.76098335 28.35644531 50.00883484 C28.18000488 50.99446159 28.18000488 50.99446159 28 52 C27.01 52.66 26.02 53.32 25 54 C24.99120064 53.06705612 24.99120064 53.06705612 24.98222351 52.11526489 C24.91843603 45.65905841 24.83405531 39.20335722 24.73754883 32.74755859 C24.70423335 30.3361679 24.67622232 27.92469798 24.65356445 25.51318359 C24.62014028 22.05271542 24.56783047 18.59297773 24.51171875 15.1328125 C24.50532883 14.04944611 24.4989389 12.96607971 24.49235535 11.84988403 C24.47256119 10.8489975 24.45276703 9.84811096 24.43237305 8.81689453 C24.42126999 7.93309113 24.41016693 7.04928772 24.39872742 6.13870239 C24.26714737 5.4329306 24.13556732 4.72715881 24 4 C20.81579155 1.87719437 19.79462745 1.71980463 16.11328125 1.5859375 C15.17548828 1.54726563 14.23769531 1.50859375 13.27148438 1.46875 C12.29501953 1.4378125 11.31855469 1.406875 10.3125 1.375 C9.32443359 1.33632813 8.33636719 1.29765625 7.31835938 1.2578125 C4.87909293 1.16354133 2.43983405 1.07793782 0 1 C0 0.67 0 0.34 0 0 Z " fill="#FDFDFC" transform="translate(191,707)"/>
<path d="M0 0 C2 2 2 2 3 10 C-9.87 10 -22.74 10 -36 10 C-35.67 9.01 -35.34 8.02 -35 7 C-23.12 7 -11.24 7 1 7 C0.505 3.535 0.505 3.535 0 0 Z " fill="#F2F1F1" transform="translate(815,769)"/>
<path d="M0 0 C0.33 0 0.66 0 1 0 C1 14.19 1 28.38 1 43 C-1.64 41.02 -4.28 39.04 -7 37 C-6.01 37 -5.02 37 -4 37 C-1.51967324 33.27950986 -1.70597279 31.22243998 -1.62109375 26.77734375 C-1.60409927 26.0760585 -1.5871048 25.37477325 -1.56959534 24.65223694 C-1.51651319 22.41408253 -1.47618919 20.17594586 -1.4375 17.9375 C-1.39355957 15.69557757 -1.34685494 13.45379796 -1.29469299 11.21205139 C-1.24816936 9.18048032 -1.21066592 7.1487087 -1.17358398 5.11694336 C-1 2 -1 2 0 0 Z " fill="#FCFCFC" transform="translate(409,708)"/>
<path d="M0 0 C4.25007753 -0.02495303 8.50011481 -0.0429783 12.75024414 -0.05493164 C14.192309 -0.05992148 15.63436891 -0.06671573 17.07641602 -0.07543945 C24.78215673 -0.1208459 32.35149621 -0.08531842 40 1 C40 1.33 40 1.66 40 2 C29.95000878 3.25678024 19.91885892 3.11379149 9.8125 3.0625 C8.08007942 3.05747379 6.34765743 3.05291287 4.61523438 3.04882812 C0.41012072 3.03791402 -3.79492366 3.02071152 -8 3 C-8 2.67 -8 2.34 -8 2 C-5.36 1.67 -2.72 1.34 0 1 C0 0.67 0 0.34 0 0 Z " fill="#421E0F" transform="translate(531,657)"/>
<path d="M0 0 C0.66 0 1.32 0 2 0 C2.1674126 5.51740298 2.32799286 11.03494587 2.48217773 16.55273438 C2.53562556 18.43071883 2.59095705 20.30865063 2.64819336 22.18652344 C2.7300268 24.88204596 2.80513683 27.57768375 2.87890625 30.2734375 C2.91945885 31.53756973 2.91945885 31.53756973 2.96083069 32.82723999 C3.11387171 38.77225659 3.11387171 38.77225659 2 41 C1.34 41 0.68 41 0 41 C0 27.47 0 13.94 0 0 Z " fill="#E9E8E7" transform="translate(675,710)"/>
<path d="M0 0 C1.51303711 0.00676758 1.51303711 0.00676758 3.05664062 0.01367188 C5.51699147 0.02533231 7.97721239 0.04169622 10.4375 0.0625 C10.1075 1.0525 9.7775 2.0425 9.4375 3.0625 C5.48653022 3.11189662 1.5356797 3.14821755 -2.41552734 3.17236328 C-4.4216136 3.18738107 -6.42761324 3.21278981 -8.43359375 3.23828125 C-9.69042969 3.24472656 -10.94726562 3.25117187 -12.2421875 3.2578125 C-13.40476074 3.26828613 -14.56733398 3.27875977 -15.76513672 3.28955078 C-18.5625 3.0625 -18.5625 3.0625 -20.5625 1.0625 C-13.66631142 0.15679581 -6.95041455 -0.0597984 0 0 Z " fill="#43281E" transform="translate(581.5625,673.9375)"/>
<path d="M0 0 C11.88 0 23.76 0 36 0 C36 0.33 36 0.66 36 1 C35.04287109 1.09087891 35.04287109 1.09087891 34.06640625 1.18359375 C33.24011719 1.26738281 32.41382813 1.35117187 31.5625 1.4375 C30.32693359 1.55931641 30.32693359 1.55931641 29.06640625 1.68359375 C27.01337975 1.78930815 27.01337975 1.78930815 26 3 C23.13732433 3.07325168 20.299281 3.09238205 17.4375 3.0625 C16.63119141 3.05798828 15.82488281 3.05347656 14.99414062 3.04882812 C12.99606244 3.03700518 10.99802217 3.01906914 9 3 C9 2.67 9 2.34 9 2 C6.03 1.67 3.06 1.34 0 1 C0 0.67 0 0.34 0 0 Z " fill="#3F2719" transform="translate(424,674)"/>
<path d="M0 0 C0.66 0 1.32 0 2 0 C2.98043964 2.94131891 3.11621202 4.82501665 3.09765625 7.88671875 C3.09282227 9.2934082 3.09282227 9.2934082 3.08789062 10.72851562 C3.07951172 11.70498047 3.07113281 12.68144531 3.0625 13.6875 C3.05798828 14.67556641 3.05347656 15.66363281 3.04882812 16.68164062 C3.03704303 19.12115474 3.02059011 21.56054689 3 24 C2.01 24.33 1.02 24.66 0 25 C0 16.75 0 8.5 0 0 Z " fill="#411E0E" transform="translate(295,464)"/>
<path d="M0 0 C4.29 0 8.58 0 13 0 C12.01 0.33 11.02 0.66 10 1 C10 1.66 10 2.32 10 3 C9.01 3.495 9.01 3.495 8 4 C10.54456151 6.96865509 13.48994665 8.3619751 17 10 C14 11 14 11 11.66015625 9.9609375 C10.37431641 9.17589844 10.37431641 9.17589844 9.0625 8.375 C8.20785156 7.86710938 7.35320313 7.35921875 6.47265625 6.8359375 C4 5 4 5 0 0 Z " fill="#F7D337" transform="translate(505,223)"/>
<path d="M0 0 C0.33 0 0.66 0 1 0 C1.02934711 3.49998201 1.04691445 6.99993179 1.0625 10.5 C1.07087891 11.48226563 1.07925781 12.46453125 1.08789062 13.4765625 C1.10659124 19.08674757 0.838879 24.45150899 0 30 C-0.33 30 -0.66 30 -1 30 C-2.32915021 22.02509872 -2.08801359 14.05813281 -2 6 C-1.67 6 -1.34 6 -1 6 C-0.67 4.02 -0.34 2.04 0 0 Z " fill="#44261A" transform="translate(279,466)"/>
<path d="M0 0 C3.56323107 0.58131144 6.35895772 1.51626235 9.5390625 3.21484375 C10.78042969 3.87323242 10.78042969 3.87323242 12.046875 4.54492188 C12.89765625 5.00447266 13.7484375 5.46402344 14.625 5.9375 C15.48351562 6.39318359 16.34203125 6.84886719 17.2265625 7.31835938 C20.58422672 9.10998802 23.83057954 10.88705303 27 13 C22.81154456 12.40164922 18.94251293 11.5586679 15 10 C14.67 9.34 14.34 8.68 14 8 C12.33772664 7.26859972 10.67228432 6.54315827 8.98828125 5.86328125 C5.83789776 4.49543302 2.95367541 2.74809361 0 1 C0 0.67 0 0.34 0 0 Z " fill="#F7EFED" transform="translate(472,480)"/>
<path d="M0 0 C2.78779879 2.78779879 2.29961733 4.61802327 2.3125 8.5 C2.32925781 9.6653125 2.34601562 10.830625 2.36328125 12.03125 C2.24339844 13.0109375 2.12351562 13.990625 2 15 C1.01 15.66 0.02 16.32 -1 17 C-1.99 16.34 -2.98 15.68 -4 15 C-3.34 14.67 -2.68 14.34 -2 14 C-1.56848028 10.98688185 -1.56848028 10.98688185 -1.4375 7.5 C-1.09644087 1.09644087 -1.09644087 1.09644087 0 0 Z " fill="#221F1D" transform="translate(842,778)"/>
<path d="M0 0 C6.93 0 13.86 0 21 0 C14.75 3.125 14.75 3.125 9.9921875 3.09765625 C9.00605469 3.09443359 8.01992188 3.09121094 7.00390625 3.08789062 C5.97136719 3.07951172 4.93882812 3.07113281 3.875 3.0625 C2.31458984 3.05573242 2.31458984 3.05573242 0.72265625 3.04882812 C-1.85161962 3.03701952 -4.42578146 3.02055075 -7 3 C-7 2.67 -7 2.34 -7 2 C-3.535 1.505 -3.535 1.505 0 1 C0 0.67 0 0.34 0 0 Z " fill="#F2ECEA" transform="translate(591,676)"/>
<path d="M0 0 C0 7.59 0 15.18 0 23 C-0.33 23 -0.66 23 -1 23 C-1.03963867 22.43490723 -1.07927734 21.86981445 -1.12011719 21.28759766 C-1.31047082 18.7314954 -1.52985333 16.17870137 -1.75 13.625 C-1.811875 12.73554688 -1.87375 11.84609375 -1.9375 10.9296875 C-2.01484375 10.07890625 -2.0921875 9.228125 -2.171875 8.3515625 C-2.2347168 7.56604004 -2.29755859 6.78051758 -2.36230469 5.97119141 C-2.83036588 3.79913015 -2.83036588 3.79913015 -5.05175781 2.72802734 C-5.69467773 2.48777832 -6.33759766 2.2475293 -7 2 C-2.25 0 -2.25 0 0 0 Z " fill="#FADB36" transform="translate(372,328)"/>
<path d="M0 0 C1.32 0.33 2.64 0.66 4 1 C3.01 1.495 3.01 1.495 2 2 C1.731875 2.9075 1.46375 3.815 1.1875 4.75 C-0.20726511 8.56725188 -2.0457725 10.26193549 -5 13 C-6.02813611 14.31175986 -7.04084432 15.6369893 -8 17 C-7.41734728 12.57676318 -5.73233789 9.4844136 -3.4375 5.6875 C-2.79683594 4.61886719 -2.15617187 3.55023438 -1.49609375 2.44921875 C-1.00238281 1.64097656 -0.50867188 0.83273437 0 0 Z " fill="#F6CB36" transform="translate(410,273)"/>
<path d="M0 0 C2.43847451 0.11397544 4.87513174 0.24070974 7.3125 0.375 C8.00279297 0.4059375 8.69308594 0.436875 9.40429688 0.46875 C13.06990789 0.68124919 14.87900792 0.91933861 18 3 C14.9489365 4.01702117 12.75800939 4.16582083 9.5625 4.1875 C8.14130859 4.20876953 8.14130859 4.20876953 6.69140625 4.23046875 C3.95498356 3.99614518 2.33571877 3.39701383 0 2 C0 1.34 0 0.68 0 0 Z " fill="#282523" transform="translate(693,833)"/>
<path d="M0 0 C3.43742918 -0.05802698 6.87473253 -0.09360486 10.3125 -0.125 C11.28896484 -0.14175781 12.26542969 -0.15851562 13.27148438 -0.17578125 C14.20927734 -0.18222656 15.14707031 -0.18867187 16.11328125 -0.1953125 C16.97735596 -0.20578613 17.84143066 -0.21625977 18.73168945 -0.22705078 C21 0 21 0 24 2 C19.4323017 2.84980433 14.95958709 3.14533588 10.3125 3.25 C9.21550781 3.27578125 8.11851562 3.3015625 6.98828125 3.328125 C3.64942565 2.96150556 2.54125843 2.07351907 0 0 Z " fill="#452A1E" transform="translate(397,673)"/>
<path d="M0 0 C2.10388569 -0.05402274 4.20816714 -0.09280256 6.3125 -0.125 C8.07013672 -0.15980469 8.07013672 -0.15980469 9.86328125 -0.1953125 C13 0 13 0 16 2 C12.99686252 3.50156874 10.20932478 3.09281204 6.875 3.0625 C5.59367188 3.05347656 4.31234375 3.04445313 2.9921875 3.03515625 C1.51105469 3.01775391 1.51105469 3.01775391 0 3 C0 2.01 0 1.02 0 0 Z " fill="#2D2928" transform="translate(792,740)"/>
<path d="M0 0 C0 0.33 0 0.66 0 1 C-6.6 1 -13.2 1 -20 1 C-20 0.34 -20 -0.32 -20 -1 C-13.33927142 -3.22024286 -6.5170415 -2.26679704 0 0 Z " fill="#23201F" transform="translate(714,742)"/>
<path d="M0 0 C0 6.66666667 0 13.33333333 0 20 C-0.99 19.67 -1.98 19.34 -3 19 C-3 13.06 -3 7.12 -3 1 C-1 0 -1 0 0 0 Z " fill="#201E1C" transform="translate(756,779)"/>
<path d="M0 0 C0.66 0.33 1.32 0.66 2 1 C4.62380313 1.15660883 7.22524852 1.2582908 9.8515625 1.31640625 C10.62559418 1.33718735 11.39962585 1.35796844 12.19711304 1.37937927 C14.67298392 1.44483448 17.14896202 1.50374087 19.625 1.5625 C21.30209448 1.60568907 22.97917807 1.64930348 24.65625 1.69335938 C28.77072308 1.80051171 32.88530414 1.90179045 37 2 C37 2.33 37 2.66 37 3 C24.46 3 11.92 3 -1 3 C-0.67 2.01 -0.34 1.02 0 0 Z " fill="#CECCCA" transform="translate(780,776)"/>
<path d="M0 0 C0.33 0 0.66 0 1 0 C1.33 3.3 1.66 6.6 2 10 C2.33 10 2.66 10 3 10 C3 14.95 3 19.9 3 25 C2.01 24.34 1.02 23.68 0 23 C-0.34057617 20.66162109 -0.34057617 20.66162109 -0.29296875 17.7734375 C-0.28330078 16.7421875 -0.27363281 15.7109375 -0.26367188 14.6484375 C-0.23853516 13.56820312 -0.21339844 12.48796875 -0.1875 11.375 C-0.17396484 10.28703125 -0.16042969 9.1990625 -0.14648438 8.078125 C-0.11104754 5.38492591 -0.06164331 2.69270626 0 0 Z " fill="#3D1E0E" transform="translate(295,552)"/>
<path d="M0 0 C8.58 0 17.16 0 26 0 C21.39822025 2.30088988 19.44794671 3.12148775 14.375 3.0625 C13.37210937 3.05347656 12.36921875 3.04445313 11.3359375 3.03515625 C10.56507813 3.02355469 9.79421875 3.01195312 9 3 C9 2.67 9 2.34 9 2 C6.03 1.67 3.06 1.34 0 1 C0 0.67 0 0.34 0 0 Z " fill="#402517" transform="translate(368,672)"/>
<path d="M0 0 C7.26 0 14.52 0 22 0 C22 0.33 22 0.66 22 1 C20.35 1.33 18.7 1.66 17 2 C17 2.33 17 2.66 17 3 C14.54101345 3.08076963 12.08466258 3.14037143 9.625 3.1875 C8.57699219 3.22520508 8.57699219 3.22520508 7.5078125 3.26367188 C5.4765625 3.29296875 5.4765625 3.29296875 2 3 C1.34 2.01 0.68 1.02 0 0 Z " fill="#442B1E" transform="translate(633,672)"/>
<path d="M0 0 C0.33 0 0.66 0 1 0 C1 5.61 1 11.22 1 17 C-2.09413645 13.90586355 -2.15665224 11.12662602 -2.1875 6.9375 C-2.20167969 6.05964844 -2.21585937 5.18179687 -2.23046875 4.27734375 C-2 2 -2 2 0 0 Z " fill="#382217" transform="translate(280,447)"/>
<path d="M0 0 C4.95 0 9.9 0 15 0 C15 0.66 15 1.32 15 2 C11.71480525 3.09506492 9.26336585 3.09960608 5.8125 3.0625 C4.18248047 3.04896484 4.18248047 3.04896484 2.51953125 3.03515625 C1.68808594 3.02355469 0.85664062 3.01195312 0 3 C0 2.01 0 1.02 0 0 Z " fill="#EBEAE9" transform="translate(796,812)"/>
<path d="M0 0 C0.33 0 0.66 0 1 0 C1 8.25 1 16.5 1 25 C1.66 25 2.32 25 3 25 C2.67 26.65 2.34 28.3 2 30 C1.34 29.67 0.68 29.34 0 29 C0 19.43 0 9.86 0 0 Z " fill="#EEEEED" transform="translate(218,728)"/>
<path d="M0 0 C4.29 0 8.58 0 13 0 C13.33 0.99 13.66 1.98 14 3 C9.38 3 4.76 3 0 3 C0 2.01 0 1.02 0 0 Z " fill="#24201E" transform="translate(377,740)"/>
<path d="M0 0 C1.3293457 0.00483398 1.3293457 0.00483398 2.68554688 0.00976562 C4.05356445 0.02233398 4.05356445 0.02233398 5.44921875 0.03515625 C6.38056641 0.03966797 7.31191406 0.04417969 8.27148438 0.04882812 C10.55996248 0.06056391 12.84830683 0.07698262 15.13671875 0.09765625 C15.13671875 0.42765625 15.13671875 0.75765625 15.13671875 1.09765625 C14.1003125 1.15824219 13.06390625 1.21882813 11.99609375 1.28125 C10.62629002 1.36568996 9.256499 1.45033622 7.88671875 1.53515625 C6.86384766 1.59413086 6.86384766 1.59413086 5.8203125 1.65429688 C2.46972722 1.86574158 -0.61881259 2.2717915 -3.86328125 3.09765625 C-5.87274347 2.82715172 -7.87682349 2.50397716 -9.86328125 2.09765625 C-9.86328125 1.76765625 -9.86328125 1.43765625 -9.86328125 1.09765625 C-6.51236354 0.34402573 -3.43218313 -0.02214312 0 0 Z " fill="#F63222" transform="translate(350.86328125,396.90234375)"/>
<path d="M0 0 C0.33 1.32 0.66 2.64 1 4 C0.42475586 3.84152588 -0.15048828 3.68305176 -0.74316406 3.51977539 C-2.90939777 3.02086674 -4.89322683 2.80111676 -7.109375 2.68359375 C-7.86347656 2.64169922 -8.61757813 2.59980469 -9.39453125 2.55664062 C-10.56048828 2.49766602 -10.56048828 2.49766602 -11.75 2.4375 C-12.93916016 2.37272461 -12.93916016 2.37272461 -14.15234375 2.30664062 C-16.10137815 2.20097009 -18.05066748 2.10002034 -20 2 C-20 1.67 -20 1.34 -20 1 C-17.60429729 0.8312461 -15.20846637 0.66493164 -12.8125 0.5 C-12.13896484 0.45230469 -11.46542969 0.40460938 -10.77148438 0.35546875 C-7.17363248 0.10976179 -3.60627694 -0.05601984 0 0 Z " fill="#F13322" transform="translate(387,395)"/>
<path d="M0 0 C0.33 0 0.66 0 1 0 C1.02725341 1.7290774 1.04650987 3.45828176 1.0625 5.1875 C1.07410156 6.15042969 1.08570313 7.11335937 1.09765625 8.10546875 C1.00486622 10.85576513 0.62111685 13.32479591 0 16 C-2 14 -2 14 -2.265625 12.01171875 C-2.23575234 7.56815987 -2.08605145 4.04172469 0 0 Z " fill="#E8E8E7" transform="translate(410,784)"/>
<path d="M0 0 C0.556875 0.70125 1.11375 1.4025 1.6875 2.125 C6.57965885 8.29874156 6.57965885 8.29874156 12 14 C8.37942004 13.75270995 7.22694014 13.25387196 4.76171875 10.49609375 C4.07722656 9.48675781 3.39273437 8.47742188 2.6875 7.4375 C1.99011719 6.42558594 1.29273438 5.41367187 0.57421875 4.37109375 C0.05472656 3.58863281 -0.46476562 2.80617188 -1 2 C-0.67 1.34 -0.34 0.68 0 0 Z " fill="#EBEAE9" transform="translate(347,815)"/>
<path d="M0 0 C0.98484375 0.02707031 1.9696875 0.05414062 2.984375 0.08203125 C3.73203125 0.11683594 4.4796875 0.15164063 5.25 0.1875 C5.25 1.1775 5.25 2.1675 5.25 3.1875 C0.3 3.1875 -4.65 3.1875 -9.75 3.1875 C-5.5452889 0.03396667 -4.89908143 -0.17496719 0 0 Z " fill="#3E1E0D" transform="translate(652.75,653.8125)"/>
<path d="M0 0 C0.99 0.33 1.98 0.66 3 1 C3 5.95 3 10.9 3 16 C0.21399498 10.42798997 -0.12170033 6.2067169 0 0 Z " fill="#EAE9E7" transform="translate(715,780)"/>
<path d="M0 0 C0 0.33 0 0.66 0 1 C-1.98 1.33 -3.96 1.66 -6 2 C-6 2.33 -6 2.66 -6 3 C-11.445 4.485 -11.445 4.485 -17 6 C-16 3 -16 3 -14.125 1.3125 C-9.47268037 -0.64147424 -4.97911617 -0.23543982 0 0 Z " fill="#F0EEEE" transform="translate(703,738)"/>
<path d="M0 0 C1.65322266 0.01740234 1.65322266 0.01740234 3.33984375 0.03515625 C4.99693359 0.04869141 4.99693359 0.04869141 6.6875 0.0625 C7.54214844 0.07410156 8.39679687 0.08570313 9.27734375 0.09765625 C9.27734375 1.08765625 9.27734375 2.07765625 9.27734375 3.09765625 C7.67355034 3.15181813 6.06922969 3.19052263 4.46484375 3.22265625 C3.57152344 3.24585938 2.67820312 3.2690625 1.7578125 3.29296875 C-0.72265625 3.09765625 -0.72265625 3.09765625 -3.72265625 1.09765625 C-2.72265625 0.09765625 -2.72265625 0.09765625 0 0 Z " fill="#3A2014" transform="translate(660.72265625,670.90234375)"/>
<path d="M0 0 C1.485 0.99 1.485 0.99 3 2 C3.22137393 4.62697064 3.28162025 7.00893964 3.1875 9.625 C3.16719727 10.68460937 3.16719727 10.68460937 3.14648438 11.765625 C3.1111104 13.51074128 3.05730221 15.25546608 3 17 C2.67 17 2.34 17 2 17 C1.67 15.02 1.34 13.04 1 11 C0.67 11 0.34 11 0 11 C0 7.37 0 3.74 0 0 Z " fill="#F3EDEC" transform="translate(739,447)"/>
<path d="M0 0 C4.85963179 0.60745397 8.7405518 2.72758967 13 5 C9.78177396 6.07033136 7.96857567 5.95795392 4.8125 4.75 C3.77029297 4.37101563 3.77029297 4.37101563 2.70703125 3.984375 C1 3 1 3 0 0 Z " fill="#F5EBE9" transform="translate(531,510)"/>
<path d="M0 0 C0.33 0 0.66 0 1 0 C1.66 3.3 2.32 6.6 3 10 C0.36 10 -2.28 10 -5 10 C-5.33 9.34 -5.66 8.68 -6 8 C-4.02 8 -2.04 8 0 8 C0 5.36 0 2.72 0 0 Z " fill="#F7D837" transform="translate(372,353)"/>
<path d="M0 0 C2.52588702 2.36292656 3.88820837 3.66462511 5 7 C5.03954234 9.33299825 5.04401732 11.66708189 5 14 C4.01 13.67 3.02 13.34 2 13 C2.04125 11.783125 2.0825 10.56625 2.125 9.3125 C2.13754508 5.78105873 1.59998217 3.19996434 0 0 Z " fill="#F9D636" transform="translate(656,334)"/>
<path d="M0 0 C2.31 0 4.62 0 7 0 C7.33 0.99 7.66 1.98 8 3 C6.20866022 3.05391993 4.41686101 3.09275571 2.625 3.125 C1.62726562 3.14820313 0.62953125 3.17140625 -0.3984375 3.1953125 C-3 3 -3 3 -5 1 C-3.35 1 -1.7 1 0 1 C0 0.67 0 0.34 0 0 Z " fill="#2C2826" transform="translate(694,813)"/>
<path d="M0 0 C0.99 0 1.98 0 3 0 C3.125 3.375 3.125 3.375 3 7 C2.34 7.66 1.68 8.32 1 9 C0 8 0 8 -0.09765625 6.15234375 C-0.06510417 4.1015625 -0.03255208 2.05078125 0 0 Z " fill="#292624" transform="translate(328,716)"/>
<path d="M0 0 C0.66 0.33 1.32 0.66 2 1 C2 4.63 2 8.26 2 12 C1.01 11.34 0.02 10.68 -1 10 C-1.27028374 6.28359861 -1.180933 3.542799 0 0 Z " fill="#402719" transform="translate(279,589)"/>
<path d="M0 0 C0.66 0.33 1.32 0.66 2 1 C2 3.97 2 6.94 2 10 C1.01 9.67 0.02 9.34 -1 9 C-1.09765625 2.84765625 -1.09765625 2.84765625 -1 1 C-0.67 0.67 -0.34 0.34 0 0 Z " fill="#EFEEED" transform="translate(369,780)"/>
<path d="M0 0 C3.7910119 1.44950455 7.3874638 3.15172566 11 5 C10.34 5.66 9.68 6.32 9 7 C8.2575 6.525625 7.515 6.05125 6.75 5.5625 C4.38949985 4.22130673 2.63351523 3.487688 0 3 C0 2.01 0 1.02 0 0 Z " fill="#F3EBE8" transform="translate(310,661)"/>
<path d="M0 0 C3.71860179 1.53873177 4.35633541 2.47511388 7 6 C3.04 6 -0.92 6 -5 6 C-5 5.67 -5 5.34 -5 5 C-2.36 5 0.28 5 3 5 C2.01 3.35 1.02 1.7 0 0 Z " fill="#FDFCFB" transform="translate(341,371)"/>
<path d="M0 0 C0 0.66 0 1.32 0 2 C-4.455 3.485 -4.455 3.485 -9 5 C-9 4.01 -9 3.02 -9 2 C-5.86501708 0.14223235 -3.62528568 -0.20140476 0 0 Z " fill="#F1EEEB" transform="translate(459,209)"/>
<path d="M0 0 C0.33 0 0.66 0 1 0 C1 2.31 1 4.62 1 7 C0.67 7 0.34 7 0 7 C-0.38133299 5.0085944 -0.71325582 3.00720923 -1 1 C-0.67 0.67 -0.34 0.34 0 0 Z M-3 3 C-2.34 3.33 -1.68 3.66 -1 4 C-1.33 4.99 -1.66 5.98 -2 7 C-2.66 6.01 -3.32 5.02 -4 4 C-3.67 3.67 -3.34 3.34 -3 3 Z M-6 5 C-5.34 5.33 -4.68 5.66 -4 6 C-4.66 6.66 -5.32 7.32 -6 8 C-6 7.01 -6 6.02 -6 5 Z " fill="#E6E5E4" transform="translate(607,824)"/>
<path d="M0 0 C0.99 0 1.98 0 3 0 C3 2.64 3 5.28 3 8 C2.34 8 1.68 8 1 8 C0.67 5.36 0.34 2.72 0 0 Z " fill="#23201E" transform="translate(742,779)"/>
<path d="M0 0 C-1.98 0.99 -1.98 0.99 -4 2 C-4 2.33 -4 2.66 -4 3 C-6.64 3.33 -9.28 3.66 -12 4 C-8.66437635 0.13769893 -4.98576775 -1.84658065 0 0 Z " fill="#170A04" transform="translate(366,309)"/>
<path d="M0 0 C0.99 0 1.98 0 3 0 C3.66 2.31 4.32 4.62 5 7 C4.34 7.66 3.68 8.32 3 9 C0 3.375 0 3.375 0 0 Z " fill="#22201D" transform="translate(366,796)"/>
<path d="M0 0 C0.33 0 0.66 0 1 0 C1.33 3.63 1.66 7.26 2 11 C2.66 11 3.32 11 4 11 C3.67 11.99 3.34 12.98 3 14 C1 13 1 13 0 10 C-0.06802967 8.27204648 -0.08495645 6.54164635 -0.0625 4.8125 C-0.05347656 3.91144531 -0.04445313 3.01039063 -0.03515625 2.08203125 C-0.02355469 1.39496094 -0.01195312 0.70789063 0 0 Z " fill="#242220" transform="translate(672,785)"/>
<path d="M0 0 C0.66 0.66 1.32 1.32 2 2 C0.02 2.99 0.02 2.99 -2 4 C-1.34 2.68 -0.68 1.36 0 0 Z M-5 6 C-4.67 6.99 -4.34 7.98 -4 9 C-5.32 9.33 -6.64 9.66 -8 10 C-7.01 8.68 -6.02 7.36 -5 6 Z " fill="#EEEDED" transform="translate(276,730)"/>
<path d="M0 0 C3.91211733 1.15585285 6.8745041 2.35534962 10 5 C6.28111761 4.49287967 3.26545761 3.88391785 0 2 C0 1.34 0 0.68 0 0 Z " fill="#F4E6E5" transform="translate(489,488)"/>
<path d="M0 0 C4.875 1.75 4.875 1.75 6 4 C3.03 4 0.06 4 -3 4 C-2.01 2.68 -1.02 1.36 0 0 Z " fill="#252321" transform="translate(822,805)"/>
<path d="M0 0 C1.875 0.25 1.875 0.25 4 1 C5.72101535 3.58152302 6 4.84918025 6 8 C4.99403703 7.0479279 3.99538437 6.08812654 3 5.125 C2.443125 4.59132812 1.88625 4.05765625 1.3125 3.5078125 C0 2 0 2 0 0 Z " fill="#FCFBF9" transform="translate(604,239)"/>
</svg>
