<?xml version="1.0" encoding="UTF-8"?>
<svg version="1.1" xmlns="http://www.w3.org/2000/svg" width="1024" height="1024">
<path d="M0 0 C337.92 0 675.84 0 1024 0 C1024 337.92 1024 675.84 1024 1024 C686.08 1024 348.16 1024 0 1024 C0 686.08 0 348.16 0 0 Z " fill="#FEFEFE" transform="translate(0,0)"/>
<path d="M0 0 C0.83192871 0.00563965 1.66385742 0.0112793 2.52099609 0.01708984 C13.25211943 0.22725922 22.43006355 2.16284033 30.75 9.3125 C34.23783758 13.34531221 34.88947749 18.09081133 34.75 23.3125 C33.61822612 28.96126429 31.17544844 32.56788979 26.75 36.3125 C20.60531763 39.38484119 11.94254153 37.25525813 5.75 35.3125 C-4.85510822 34.27278351 -14.78392675 38.18943595 -23.25 44.3125 C-31.64754466 51.40375993 -34.94194982 59.99470536 -35.875 70.75 C-36.00691885 72.60368726 -36.13426734 74.45773183 -36.25 76.3125 C-35.59 75.9825 -34.93 75.6525 -34.25 75.3125 C22.32037396 66.88712516 82.12365738 85.61907806 127.45605469 119.171875 C135.69375909 125.40300665 143.34779592 132.11880871 150.75 139.3125 C151.35585938 139.89257812 151.96171875 140.47265625 152.5859375 141.0703125 C161.46240366 149.58447391 169.50857361 158.36564438 176.75 168.3125 C177.14380859 168.85084473 177.53761719 169.38918945 177.94335938 169.94384766 C196.46347368 195.46717102 207.55684612 223.01011355 215.75 253.3125 C216.33789307 253.42207031 216.92578613 253.53164063 217.53149414 253.64453125 C238.26545481 257.62351073 254.9682106 263.74359121 267.5625 281.75 C269.00442238 283.9133488 270.37942449 286.10163117 271.75 288.3125 C272.2553125 289.12332031 272.760625 289.93414062 273.28125 290.76953125 C281.7866159 305.99102449 283.19260261 325.51813882 279.125 342.25 C274.83947093 356.18546168 267.16973729 368.99152524 255.75 378.3125 C255.09 378.3125 254.43 378.3125 253.75 378.3125 C253.75 378.9725 253.75 379.6325 253.75 380.3125 C254.51699219 380.32667969 255.28398438 380.34085937 256.07421875 380.35546875 C285.67755676 381.62762149 315.83154562 393.36042327 336.375 415 C344.18788441 424.05962128 349.93465752 434.37853752 355.5625 444.875 C356.24675049 446.13147339 356.24675049 446.13147339 356.94482422 447.41333008 C362.85593286 458.69411333 365.35932405 470.2536821 366.9375 482.8125 C367.10185547 484.02808594 367.26621094 485.24367188 367.43554688 486.49609375 C369.11948583 499.27221363 369.91500614 512.03535327 370.30419922 524.91210938 C370.32516151 525.59389346 370.34612381 526.27567755 370.36772132 526.97812176 C370.85391457 543.0969259 370.89787918 559.21203732 370.8843255 575.3369236 C370.88171783 579.44202349 370.88416233 583.54712165 370.88571167 587.65222168 C370.8875113 594.54321706 370.88518776 601.43420159 370.88037109 608.32519531 C370.87554889 615.302416 370.87554601 622.27961527 370.88037109 629.25683594 C370.92529101 696.10381292 370.92529101 696.10381292 370.32421875 719.984375 C370.30613789 720.73060623 370.28805702 721.47683746 370.26942825 722.24568176 C369.10474746 767.9283418 363.9611997 811.19927625 329.23046875 844.23828125 C317.01199033 855.34756446 302.17311922 862.27771206 286.6875 867.5625 C286.00453857 867.79678711 285.32157715 868.03107422 284.61791992 868.27246094 C272.21757401 872.30985022 259.96559153 873.84846963 247.015625 874.40625 C245.3989959 874.48400554 243.78239904 874.56243373 242.16583252 874.64147949 C237.02807194 874.88672146 231.88937055 875.10400406 226.75 875.3125 C225.91099152 875.34655945 225.07198303 875.3806189 224.20755005 875.41571045 C210.97388003 875.94690572 197.7374697 876.38839101 184.5 876.8125 C182.53416893 876.87592797 180.56833846 876.9393743 178.60250854 877.00283813 C167.51682954 877.35968993 156.43087056 877.70674817 145.34466267 878.04675198 C139.08064767 878.23924216 132.81688813 878.43857591 126.55322266 878.64208984 C21.98209485 882.02004183 -82.79420085 880.98924159 -225.33270264 876.4375 C-229.41486355 876.26258807 -233.4975149 876.10065024 -237.58016968 875.93774414 C-241.62785242 875.77480296 -245.67523391 875.60526687 -249.72253418 875.43310547 C-251.55410444 875.35532376 -253.38572601 875.27873672 -255.21740723 875.20361328 C-264.47648724 874.81816983 -273.70267327 874.26311229 -282.9296875 873.390625 C-284.13610649 873.2817395 -284.13610649 873.2817395 -285.36689758 873.1706543 C-293.66784658 872.33303971 -301.41078819 870.09862164 -309.25 867.3125 C-309.89275879 867.08546387 -310.53551758 866.85842773 -311.19775391 866.62451172 C-325.17493164 861.5830367 -338.01829843 855.12018227 -349.25 845.3125 C-349.91 844.79558594 -350.57 844.27867187 -351.25 843.74609375 C-364.53902814 833.05592797 -373.24322843 817.3967832 -380.0625 802.0625 C-380.34061523 801.43746582 -380.61873047 800.81243164 -380.90527344 800.16845703 C-381.73491035 798.23179546 -382.5058401 796.28357577 -383.25 794.3125 C-383.64106934 793.27935669 -383.64106934 793.27935669 -384.04003906 792.2253418 C-386.59629516 784.67956318 -387.31949704 776.88164898 -388.13037109 769.0012207 C-388.37282202 766.64615593 -388.62848381 764.29283419 -388.88671875 761.93945312 C-389.0528639 760.39331285 -389.21825193 758.84709098 -389.3828125 757.30078125 C-389.4921965 756.28278191 -389.4921965 756.28278191 -389.60379028 755.24421692 C-390.86639035 742.90380655 -391.46238032 730.51380206 -391.80078125 718.1171875 C-391.82159571 717.36468594 -391.84241016 716.61218437 -391.86385536 715.83687973 C-392.57489149 688.99878341 -392.43735894 662.14015774 -392.43511117 635.29456782 C-392.4354136 629.9927431 -392.44355766 624.69096978 -392.45581055 619.38916016 C-392.52439836 588.93247039 -392.47419467 558.49725555 -391.42578125 528.0546875 C-391.39110434 526.96835148 -391.35642742 525.88201546 -391.32069969 524.76276016 C-390.07516759 487.0866067 -385.80607458 453.59732677 -363.25 422.3125 C-362.56808594 421.35472656 -361.88617188 420.39695312 -361.18359375 419.41015625 C-341.00206349 392.91028319 -307.72837515 383.76197497 -276.25 379.3125 C-276.96285156 378.64605469 -277.67570312 377.97960937 -278.41015625 377.29296875 C-284.81388087 371.18037342 -289.88798025 365.08983741 -294.25 357.3125 C-294.63671875 356.67183594 -295.0234375 356.03117187 -295.421875 355.37109375 C-304.16178147 339.80733723 -304.73484137 319.7143725 -300.08691406 302.79077148 C-296.83888031 292.15524108 -291.59547242 283.58316551 -284.25 275.3125 C-283.65703125 274.61382812 -283.0640625 273.91515625 -282.453125 273.1953125 C-274.17280505 264.10111495 -261.85634551 257.5703505 -249.6953125 255.79296875 C-248.43460938 255.59316406 -247.17390625 255.39335937 -245.875 255.1875 C-244.69164062 255.04054688 -243.50828125 254.89359375 -242.2890625 254.7421875 C-239.22183205 253.66053793 -239.22183205 253.66053793 -238.28295898 251.57299805 C-237.46544301 249.174364 -236.844668 246.77573068 -236.25 244.3125 C-235.74292291 242.55128309 -235.22837401 240.79220318 -234.70703125 239.03515625 C-234.44229004 238.11879395 -234.17754883 237.20243164 -233.90478516 236.25830078 C-222.14584981 196.00524965 -197.97773708 157.86967354 -165.0546875 131.55859375 C-163.22789738 130.09563509 -161.41933051 128.60953045 -159.6328125 127.09765625 C-147.55532771 116.90167873 -134.2175227 108.65344979 -120.25 101.3125 C-119.54987793 100.9427002 -118.84975586 100.57290039 -118.12841797 100.19189453 C-85.68043655 83.3125 -85.68043655 83.3125 -71.25 83.3125 C-71.28480469 82.2709375 -71.31960938 81.229375 -71.35546875 80.15625 C-71.84204605 59.15932805 -67.46447925 39.17738643 -52.75 23.25 C-38.74170433 10.1037533 -19.45299192 -0.13852588 0 0 Z " fill="#DE3E1E" transform="translate(522.25,58.6875)"/>
<path d="M0 0 C0.83192871 0.00563965 1.66385742 0.0112793 2.52099609 0.01708984 C13.25211943 0.22725922 22.43006355 2.16284033 30.75 9.3125 C34.23783758 13.34531221 34.88947749 18.09081133 34.75 23.3125 C33.61822612 28.96126429 31.17544844 32.56788979 26.75 36.3125 C20.60531763 39.38484119 11.94254153 37.25525813 5.75 35.3125 C-4.85510822 34.27278351 -14.78392675 38.18943595 -23.25 44.3125 C-31.64754466 51.40375993 -34.94194982 59.99470536 -35.875 70.75 C-36.00691885 72.60368726 -36.13426734 74.45773183 -36.25 76.3125 C-35.59 75.9825 -34.93 75.6525 -34.25 75.3125 C22.32037396 66.88712516 82.12365738 85.61907806 127.45605469 119.171875 C135.69375909 125.40300665 143.34779592 132.11880871 150.75 139.3125 C151.35585938 139.89257812 151.96171875 140.47265625 152.5859375 141.0703125 C161.46240366 149.58447391 169.50857361 158.36564438 176.75 168.3125 C177.14380859 168.85084473 177.53761719 169.38918945 177.94335938 169.94384766 C196.46347368 195.46717102 207.55684612 223.01011355 215.75 253.3125 C216.33789307 253.42207031 216.92578613 253.53164063 217.53149414 253.64453125 C238.26545481 257.62351073 254.9682106 263.74359121 267.5625 281.75 C269.00442238 283.9133488 270.37942449 286.10163117 271.75 288.3125 C272.2553125 289.12332031 272.760625 289.93414062 273.28125 290.76953125 C281.7866159 305.99102449 283.19260261 325.51813882 279.125 342.25 C274.83947093 356.18546168 267.16973729 368.99152524 255.75 378.3125 C255.09 378.3125 254.43 378.3125 253.75 378.3125 C253.75 378.9725 253.75 379.6325 253.75 380.3125 C254.51699219 380.32667969 255.28398438 380.34085937 256.07421875 380.35546875 C285.67755676 381.62762149 315.83154562 393.36042327 336.375 415 C344.18788441 424.05962128 349.93465752 434.37853752 355.5625 444.875 C356.24675049 446.13147339 356.24675049 446.13147339 356.94482422 447.41333008 C362.85593286 458.69411333 365.35932405 470.2536821 366.9375 482.8125 C367.10185547 484.02808594 367.26621094 485.24367188 367.43554688 486.49609375 C369.11948583 499.27221363 369.91500614 512.03535327 370.30419922 524.91210938 C370.32516151 525.59389346 370.34612381 526.27567755 370.36772132 526.97812176 C370.85391457 543.0969259 370.89787918 559.21203732 370.8843255 575.3369236 C370.88171783 579.44202349 370.88416233 583.54712165 370.88571167 587.65222168 C370.8875113 594.54321706 370.88518776 601.43420159 370.88037109 608.32519531 C370.87554889 615.302416 370.87554601 622.27961527 370.88037109 629.25683594 C370.92529101 696.10381292 370.92529101 696.10381292 370.32421875 719.984375 C370.30613789 720.73060623 370.28805702 721.47683746 370.26942825 722.24568176 C369.10474746 767.9283418 363.9611997 811.19927625 329.23046875 844.23828125 C317.01199033 855.34756446 302.17311922 862.27771206 286.6875 867.5625 C286.00453857 867.79678711 285.32157715 868.03107422 284.61791992 868.27246094 C272.21757401 872.30985022 259.96559153 873.84846963 247.015625 874.40625 C245.3989959 874.48400554 243.78239904 874.56243373 242.16583252 874.64147949 C237.02807194 874.88672146 231.88937055 875.10400406 226.75 875.3125 C225.91099152 875.34655945 225.07198303 875.3806189 224.20755005 875.41571045 C210.97388003 875.94690572 197.7374697 876.38839101 184.5 876.8125 C182.53416893 876.87592797 180.56833846 876.9393743 178.60250854 877.00283813 C167.51682954 877.35968993 156.43087056 877.70674817 145.34466267 878.04675198 C139.08064767 878.23924216 132.81688813 878.43857591 126.55322266 878.64208984 C21.98209485 882.02004183 -82.79420085 880.98924159 -225.33270264 876.4375 C-229.41486355 876.26258807 -233.4975149 876.10065024 -237.58016968 875.93774414 C-241.62785242 875.77480296 -245.67523391 875.60526687 -249.72253418 875.43310547 C-251.55410444 875.35532376 -253.38572601 875.27873672 -255.21740723 875.20361328 C-264.47648724 874.81816983 -273.70267327 874.26311229 -282.9296875 873.390625 C-284.13610649 873.2817395 -284.13610649 873.2817395 -285.36689758 873.1706543 C-293.66784658 872.33303971 -301.41078819 870.09862164 -309.25 867.3125 C-309.89275879 867.08546387 -310.53551758 866.85842773 -311.19775391 866.62451172 C-325.17493164 861.5830367 -338.01829843 855.12018227 -349.25 845.3125 C-349.91 844.79558594 -350.57 844.27867187 -351.25 843.74609375 C-364.53902814 833.05592797 -373.24322843 817.3967832 -380.0625 802.0625 C-380.34061523 801.43746582 -380.61873047 800.81243164 -380.90527344 800.16845703 C-381.73491035 798.23179546 -382.5058401 796.28357577 -383.25 794.3125 C-383.64106934 793.27935669 -383.64106934 793.27935669 -384.04003906 792.2253418 C-386.59629516 784.67956318 -387.31949704 776.88164898 -388.13037109 769.0012207 C-388.37282202 766.64615593 -388.62848381 764.29283419 -388.88671875 761.93945312 C-389.0528639 760.39331285 -389.21825193 758.84709098 -389.3828125 757.30078125 C-389.4921965 756.28278191 -389.4921965 756.28278191 -389.60379028 755.24421692 C-390.86639035 742.90380655 -391.46238032 730.51380206 -391.80078125 718.1171875 C-391.82159571 717.36468594 -391.84241016 716.61218437 -391.86385536 715.83687973 C-392.57489149 688.99878341 -392.43735894 662.14015774 -392.43511117 635.29456782 C-392.4354136 629.9927431 -392.44355766 624.69096978 -392.45581055 619.38916016 C-392.52439836 588.93247039 -392.47419467 558.49725555 -391.42578125 528.0546875 C-391.39110434 526.96835148 -391.35642742 525.88201546 -391.32069969 524.76276016 C-390.07516759 487.0866067 -385.80607458 453.59732677 -363.25 422.3125 C-362.56808594 421.35472656 -361.88617188 420.39695312 -361.18359375 419.41015625 C-341.00206349 392.91028319 -307.72837515 383.76197497 -276.25 379.3125 C-276.96285156 378.64605469 -277.67570312 377.97960937 -278.41015625 377.29296875 C-284.81388087 371.18037342 -289.88798025 365.08983741 -294.25 357.3125 C-294.63671875 356.67183594 -295.0234375 356.03117187 -295.421875 355.37109375 C-304.16178147 339.80733723 -304.73484137 319.7143725 -300.08691406 302.79077148 C-296.83888031 292.15524108 -291.59547242 283.58316551 -284.25 275.3125 C-283.65703125 274.61382812 -283.0640625 273.91515625 -282.453125 273.1953125 C-274.17280505 264.10111495 -261.85634551 257.5703505 -249.6953125 255.79296875 C-248.43460938 255.59316406 -247.17390625 255.39335937 -245.875 255.1875 C-244.69164062 255.04054688 -243.50828125 254.89359375 -242.2890625 254.7421875 C-239.22183205 253.66053793 -239.22183205 253.66053793 -238.28295898 251.57299805 C-237.46544301 249.174364 -236.844668 246.77573068 -236.25 244.3125 C-235.74292291 242.55128309 -235.22837401 240.79220318 -234.70703125 239.03515625 C-234.44229004 238.11879395 -234.17754883 237.20243164 -233.90478516 236.25830078 C-222.14584981 196.00524965 -197.97773708 157.86967354 -165.0546875 131.55859375 C-163.22789738 130.09563509 -161.41933051 128.60953045 -159.6328125 127.09765625 C-147.55532771 116.90167873 -134.2175227 108.65344979 -120.25 101.3125 C-119.54987793 100.9427002 -118.84975586 100.57290039 -118.12841797 100.19189453 C-85.68043655 83.3125 -85.68043655 83.3125 -71.25 83.3125 C-71.28480469 82.2709375 -71.31960938 81.229375 -71.35546875 80.15625 C-71.84204605 59.15932805 -67.46447925 39.17738643 -52.75 23.25 C-38.74170433 10.1037533 -19.45299192 -0.13852588 0 0 Z M-329.25 433.3125 C-329.97316406 433.93640625 -330.69632813 434.5603125 -331.44140625 435.203125 C-349.89882356 452.39633564 -356.06914276 475.00889306 -358.28613281 499.26464844 C-358.3702454 500.17361752 -358.45435799 501.08258659 -358.54101944 502.01910019 C-359.36222302 511.15459498 -359.94609732 520.29062237 -360.359375 529.453125 C-360.40124687 530.37034584 -360.44311874 531.28756668 -360.48625946 532.23258209 C-361.80602776 562.33005207 -361.55085506 592.4779736 -361.50713873 622.59743929 C-361.49958186 628.4088958 -361.50232945 634.22028424 -361.51074219 640.03173828 C-361.56033851 675.17190364 -361.59276966 710.23235725 -359.25 745.3125 C-359.15953176 746.78597968 -359.07017945 748.25952825 -358.98187256 749.73313904 C-358.93804066 750.45988956 -358.89420876 751.18664009 -358.84904861 751.93541336 C-358.72863361 753.93725147 -358.60850826 755.939107 -358.48840332 757.94096375 C-356.79953502 781.82519779 -348.43068222 803.53846115 -331.25 820.3125 C-330.60546875 820.97765625 -329.9609375 821.6428125 -329.296875 822.328125 C-317.55419915 833.66235995 -300.10795023 839.91980546 -284.140625 841.3828125 C-283.27381607 841.4653125 -282.40700714 841.5478125 -281.51393127 841.6328125 C-271.42083021 842.54592384 -261.31250334 842.94544034 -251.1875 843.3125 C-249.03351786 843.39424756 -246.87954682 843.47628799 -244.72558594 843.55859375 C-240.17966991 843.73076209 -235.63360978 843.89821363 -231.08740234 844.0625 C-226.67597832 844.22234495 -222.2648916 844.38848775 -217.85400391 844.5625 C-110.70801554 848.78626718 -3.35120858 849.84550791 134.49717903 846.50920677 C140.17298497 846.35257903 145.84903784 846.21090927 151.52539062 846.07568359 C171.55015318 845.59360657 191.55095445 844.87613633 211.5581665 843.91143799 C214.36582823 843.77703703 217.17366896 843.64660213 219.98151684 843.51615715 C264.49220737 842.9935941 264.49220737 842.9935941 303.75 824.3125 C304.57757812 823.64605469 305.40515625 822.97960937 306.2578125 822.29296875 C325.62534951 805.85721486 334.66087801 781.99036678 336.9375 757.1875 C337.07053056 755.27237732 337.19446788 753.35661003 337.3112793 751.44042969 C337.52940069 747.86535148 337.75146849 744.29117324 337.99751282 740.71789551 C340.46407337 704.29828616 340.09058516 667.79266256 340.0636794 631.31034029 C340.06022109 625.00437527 340.06975525 618.69852064 340.08618164 612.39257812 C346.02334522 521.97812851 346.02334522 521.97812851 315.75 441.3125 C314.98816406 440.3534375 314.22632813 439.394375 313.44140625 438.40625 C299.42946809 421.63872708 276.99467572 413.57924133 255.85644531 411.25805664 C250.90726549 410.82051205 245.95786469 410.58071991 240.9932251 410.39764404 C239.37907053 410.33637705 237.76511184 410.26986785 236.15130615 410.20001221 C230.16703412 409.94147668 224.18539586 409.75223486 218.19668579 409.63345337 C216.15845462 409.58637194 214.1205329 409.52286311 212.08334351 409.44247437 C200.96949106 408.55477328 200.96949106 408.55477328 191.02905273 412.36987305 C189.2199045 414.94650932 187.97456869 417.419402 186.75 420.3125 C185.51171875 422.14404297 185.51171875 422.14404297 184.30078125 423.67578125 C183.56214844 424.64902344 182.82351563 425.62226563 182.0625 426.625 C176.71333355 433.58494771 170.8278973 439.98761737 164.75 446.3125 C163.89277344 447.21097656 163.03554688 448.10945313 162.15234375 449.03515625 C156.38184376 454.95197637 150.28304949 460.25465523 143.75 465.3125 C142.92072998 465.95638672 142.92072998 465.95638672 142.07470703 466.61328125 C119.01423677 484.39052797 92.51518351 497.64810075 64.75 506.3125 C63.38511816 506.76211568 62.02052508 507.21260907 60.65625 507.6640625 C42.14637654 513.61126197 22.35413493 517.34288203 2.8984375 517.5859375 C1.97396317 517.59851089 1.04948883 517.61108429 0.09700012 517.6240387 C-31.11031467 517.96562882 -59.35268973 514.90358876 -89.25 505.3125 C-89.95979004 505.09045898 -90.66958008 504.86841797 -91.40087891 504.63964844 C-113.60987234 497.55298606 -135.32778476 485.76706709 -154.25 472.3125 C-154.83475098 471.90193359 -155.41950195 471.49136719 -156.02197266 471.06835938 C-174.86355224 457.75507955 -198.53536358 439.1556125 -208.43449402 417.75134277 C-210.93668463 412.409817 -210.93668463 412.409817 -215.75430298 409.42132568 C-218.89686577 409.11869191 -221.89620343 409.13523356 -225.05078125 409.265625 C-226.77544868 409.27973419 -226.77544868 409.27973419 -228.53495789 409.29412842 C-232.213256 409.33675659 -235.88575843 409.44964402 -239.5625 409.5625 C-241.99278276 409.59554083 -244.42312882 409.62423013 -246.85351562 409.6484375 C-276.41953551 410.05831054 -306.0527627 413.15342167 -329.25 433.3125 Z " fill="#35260B" transform="translate(522.25,58.6875)"/>
<path d="M0 0 C34.94912534 -0.63889373 65.75983259 3.48334664 98 18 C98.68416992 18.30550781 99.36833984 18.61101562 100.07324219 18.92578125 C115.00521415 25.69267594 127.83697237 35.13514876 140 46 C140.83192871 46.73138184 140.83192871 46.73138184 141.68066406 47.47753906 C149.23342219 54.12899272 155.82070542 61.0213706 162 69 C162.65226562 69.78632813 163.30453125 70.57265625 163.9765625 71.3828125 C191.1247259 104.1552966 204.41339382 144.36694593 204.31567383 186.70141602 C204.31253188 189.53376473 204.33599434 192.36504645 204.36132812 195.19726562 C204.5121878 239.19840283 190.26738355 280.75082266 159.44921875 312.59375 C155.74914486 316.31323881 151.83550787 319.6756032 147.6953125 322.8984375 C144.79801631 325.15748873 142.03348462 327.53999192 139.25 329.9375 C110.93740153 353.45258499 75.24704181 366.98173425 39 372 C38.33645508 372.0928125 37.67291016 372.185625 36.98925781 372.28125 C10.58672499 375.45922604 -17.15631136 373.96335902 -43 368 C-44.1437207 367.73767578 -45.28744141 367.47535156 -46.46582031 367.20507812 C-84.70138571 358.17407797 -114.59167317 340.848332 -143 314 C-143.75265137 313.29834717 -143.75265137 313.29834717 -144.52050781 312.58251953 C-162.71012311 295.54510816 -174.66485164 274.74287311 -182 251 C-182.37769531 249.80890625 -182.75539063 248.6178125 -183.14453125 247.390625 C-197.50979574 199.82922496 -192.12834748 143.84690146 -169 100 C-165.39677931 93.39863273 -161.34989668 87.13128295 -157 81 C-156.31292969 80.02546875 -155.62585938 79.0509375 -154.91796875 78.046875 C-147.10417039 67.2905832 -138.24788541 57.47846635 -128 49 C-126.55367188 47.73929688 -126.55367188 47.73929688 -125.078125 46.453125 C-105.13429279 29.10366182 -82.95798244 16.61673747 -58 8.125 C-57.12762695 7.82634033 -56.25525391 7.52768066 -55.35644531 7.2199707 C-50.21161658 5.52691718 -45.39643489 4.48717815 -40 4 C-39.47792969 4.79921875 -38.95585937 5.5984375 -38.41796875 6.421875 C-23.64987416 28.63197109 -4.59507103 43.16848625 20.375 52.5625 C21.27790771 52.90941895 22.18081543 53.25633789 23.11108398 53.61376953 C30.26344042 56.17300794 37.04041898 57.31986034 44.375 54.875 C48.39530086 52.00335653 50.45092353 48.64722941 52 44 C52.43576216 37.35462703 51.65828451 33.25794404 47.3203125 27.94140625 C44.34786617 25.4543594 41.90305104 24.99822343 38.125 24.1875 C24.16633121 20.81147363 12.49429791 13.6790629 2 4 C0.82714844 1.84057617 0.82714844 1.84057617 0 0 Z " fill="#FDB530" transform="translate(504,169)"/>
<path d="M0 0 C2.53295104 1.08625891 4.90420892 2.20664897 7.33203125 3.48828125 C8.37447243 4.0243399 8.37447243 4.0243399 9.43797302 4.57122803 C11.63114565 5.70332909 13.81619259 6.84995137 16 8 C16.68525757 8.35842987 17.37051514 8.71685974 18.07653809 9.08615112 C22.91719613 11.61834043 27.74108584 14.18141217 32.5625 16.75 C35.55799485 18.34227463 38.55428378 19.93305064 41.55078125 21.5234375 C42.28187103 21.91161652 43.01296082 22.29979553 43.76620483 22.69973755 C49.90985571 25.95892071 56.07602255 29.17365834 62.25 32.375 C69.34324191 36.05614473 76.37589718 39.83061371 83.375 43.6875 C92.66133867 48.80198774 102.06473601 53.66833059 111.5 58.5 C121.9073964 63.82965583 132.26047994 69.22904635 142.49536133 74.88574219 C147.52912742 77.66625275 152.5982736 80.3540714 157.71533203 82.97802734 C179.00304979 93.93092182 179.00304979 93.93092182 183 102 C183.51540148 106.63861333 183.51497565 108.92713406 181.5 113.125 C175.42454372 120.11177472 167.14851515 124.41459161 159.1875 128.9375 C158.05530029 129.5857373 156.92310059 130.23397461 155.7565918 130.90185547 C145.40105905 136.82084043 134.96932381 142.60317262 124.53125 148.375 C118.4344458 151.75014485 112.37057412 155.18096922 106.3125 158.625 C97.43113022 163.6684928 88.47540707 168.56226567 79.48535156 173.40893555 C72.02791249 177.43222027 64.62985325 181.54759401 57.2578125 185.72460938 C51.47443654 188.99151638 45.67346469 192.22727233 39.8762207 195.46948242 C34.83297429 198.29075912 29.79152314 201.11500834 24.75901794 203.95539856 C23.03316011 204.92930681 21.30650188 205.90179623 19.57983398 206.87426758 C17.4047766 208.09950153 15.23104966 209.32710117 13.05883789 210.55737305 C12.07520264 211.11078369 11.09156738 211.66419434 10.078125 212.234375 C9.21606445 212.72131836 8.35400391 213.20826172 7.46582031 213.70996094 C1.62522952 216.76557299 -3.41846462 218.16023947 -10 217 C-15.48175741 214.13151986 -18.12250327 209.79598949 -20 204 C-20.27254731 201.25210755 -20.4066527 198.73891232 -20.38095093 195.99891663 C-20.3856309 195.22270523 -20.39031087 194.44649383 -20.39513266 193.64676088 C-20.40704166 191.06128673 -20.39764163 188.47634667 -20.38818359 185.89086914 C-20.39225115 184.03091626 -20.39759407 182.1709658 -20.40411377 180.3110199 C-20.41777217 175.26967528 -20.41249452 170.22851518 -20.40297651 165.18716741 C-20.39537117 159.90581475 -20.40242807 154.62447768 -20.40713501 149.34312439 C-20.41259048 140.47359385 -20.40540689 131.60413829 -20.39111328 122.73461914 C-20.37479223 112.48888354 -20.38007219 102.2433271 -20.3965925 91.99759585 C-20.41021928 83.19314069 -20.41212103 74.38873939 -20.40427649 65.58427709 C-20.3996059 60.32919119 -20.39895817 55.07418942 -20.40888596 49.81910896 C-20.41757048 44.87701497 -20.41150649 39.93515124 -20.39420319 34.99308205 C-20.39024607 33.18231335 -20.39135907 31.37152519 -20.39799118 29.56076431 C-20.40622772 27.08293946 -20.39586011 24.60584569 -20.38095093 22.12806702 C-20.38764309 21.41686441 -20.39433526 20.7056618 -20.40123022 19.9729076 C-20.32420417 13.3421909 -18.78689065 8.04838684 -14.4375 3.0625 C-9.82591178 -0.83961311 -5.8634066 -0.92095853 0 0 Z " fill="#FEFEFE" transform="translate(437,596)"/>
<path d="M0 0 C0.72703125 -0.03738281 1.4540625 -0.07476562 2.203125 -0.11328125 C7.57954499 0.78553743 11.34556206 3.44722637 14.55859375 7.703125 C15.44597835 8.98196391 16.32200546 10.26874593 17.1875 11.5625 C29.16262767 28.5694685 44.92355317 38.21661905 65.27539062 42.71044922 C70.88118888 43.6817743 76.38410311 43.80166279 82.0625 43.75 C83.23949463 43.74242676 84.41648926 43.73485352 85.62915039 43.72705078 C109.58679374 43.2756725 127.71810554 32.99553433 144.27734375 16.03125 C147.12453828 12.9006854 149.68633867 9.64923237 152.1171875 6.1875 C154.87843089 3.0166942 157.4877344 1.50107535 161.65234375 0.87890625 C166.24460802 0.872996 169.8907442 0.96879768 174.1875 2.6875 C178.64433709 7.25304043 181.9404277 12.94547985 182.3125 19.4375 C180.14847542 34.3452249 165.31665367 47.52656951 153.82275391 56.16259766 C142.96093066 64.02951041 131.77008405 69.87913393 119.0625 74.1875 C118.22001709 74.47391357 117.37753418 74.76032715 116.50952148 75.05541992 C86.75125002 84.63673614 55.45073363 79.53470434 27.75 66.3125 C10.9055924 57.64811087 -10.91512782 41.05316354 -17.25 22.3125 C-18.0038365 16.6832015 -17.52902673 12.07237751 -14.25 7.3125 C-9.88333154 2.91486226 -6.37321637 0.21169775 0 0 Z " fill="#31220A" transform="translate(429.25,386.6875)"/>
<path d="M0 0 C4.75835563 2.52538427 8.06365417 5.40376262 10.984375 9.921875 C11.71720703 11.03369141 11.71720703 11.03369141 12.46484375 12.16796875 C16.29000957 18.81994333 16.65092511 24.91479398 15.796875 32.484375 C13.5751481 39.36656159 8.69427708 44.45224972 2.796875 48.484375 C-3.72676644 51.75714143 -11.84797999 51.56346879 -18.8359375 49.83203125 C-27.14244048 46.46022778 -33.65645146 40.54864695 -37.359375 32.3671875 C-39.27220967 25.83166904 -39.49256704 18.00478021 -37.078125 11.546875 C-28.23746035 -2.89287727 -15.5928218 -6.68263791 0 0 Z " fill="#32230A" transform="translate(599.203125,291.515625)"/>
<path d="M0 0 C6.0046042 3.38354681 10.76097969 8.23312327 13.2109375 14.80078125 C15.02565277 22.93725055 14.42700634 30.49117065 10.2265625 37.71875 C5.39953915 44.67750448 0.06812271 49.01836011 -8.3125 50.9375 C-16.29121611 51.7993435 -22.86631494 52.01215633 -29.3125 46.9375 C-34.99176891 42.3399966 -38.61265094 36.18698348 -39.80078125 28.97265625 C-40.17765341 20.60609427 -37.86615221 14.43131748 -32.703125 7.90234375 C-24.26521089 -1.21292585 -11.67949204 -5.39734102 0 0 Z " fill="#33230A" transform="translate(449.3125,290.0625)"/>
<path d="M0 0 C10.0650135 2.99481705 16.87294971 8.40298256 23 17 C27.0823405 25.02391064 28.46210403 33.99284117 26.31640625 42.80859375 C23.58581068 50.97771992 19.35739188 58.21769528 12 63 C8.01342665 64.89836826 4.63182071 65.08536326 0.2890625 65.046875 C-0.7014209 65.04010742 -1.6919043 65.03333984 -2.71240234 65.02636719 C-3.84476318 65.01331543 -3.84476318 65.01331543 -5 65 C-4.91435791 64.3608667 -4.82871582 63.7217334 -4.74047852 63.06323242 C-4.34545607 60.10496509 -3.95396409 57.14624022 -3.5625 54.1875 C-3.42779297 53.18267578 -3.29308594 52.17785156 -3.15429688 51.14257812 C-1.55743624 39.02980603 -0.78296622 27.016623 -0.4375 14.8125 C-0.39418434 13.36913147 -0.35056654 11.92577197 -0.30664062 10.48242188 C-0.20095142 6.98837827 -0.09932418 3.49423102 0 0 Z " fill="#FCB630" transform="translate(743,349)"/>
<path d="M0 0 C0.01458252 0.7120459 0.02916504 1.4240918 0.04418945 2.15771484 C0.41672232 18.62024519 1.55065451 34.77638468 3.65234375 51.10595703 C4.2075516 55.7277505 4.61236847 60.36153275 5 65 C-3.38725828 65.51750955 -9.64716388 64.72658439 -16.19921875 59.1171875 C-23.10146596 51.99804897 -26.12567577 44.37280147 -26.5 34.5 C-26.07408051 23.25306348 -21.74801868 15.03820664 -14 7 C-10.08990938 3.57263662 -5.39419514 0 0 0 Z " fill="#FBB631" transform="translate(279,349)"/>
<path d="M0 0 C1.98 0.99 1.98 0.99 4 2 C3.34 2 2.68 2 2 2 C2.01160156 3.12535156 2.02320313 4.25070312 2.03515625 5.41015625 C2.10461253 15.32721122 1.81649818 25.11453986 1 35 C0.67 35 0.34 35 0 35 C0 23.45 0 11.9 0 0 Z " fill="#FDC935" transform="translate(743,349)"/>
<path d="M0 0 C0.33 0 0.66 0 1 0 C1.90413673 3.83724172 2.10576898 7.37502274 2.0625 11.3125 C2.05347656 12.38113281 2.04445313 13.44976563 2.03515625 14.55078125 C2.02355469 15.35902344 2.01195312 16.16726563 2 17 C1.67 17 1.34 17 1 17 C0.67 20.96 0.34 24.92 0 29 C-0.33 29 -0.66 29 -1 29 C-1.02897435 24.72918086 -1.04678996 20.45838691 -1.0625 16.1875 C-1.07087891 14.97255859 -1.07925781 13.75761719 -1.08789062 12.50585938 C-1.09111328 11.34248047 -1.09433594 10.17910156 -1.09765625 8.98046875 C-1.10289307 7.90692139 -1.10812988 6.83337402 -1.11352539 5.72729492 C-1 3 -1 3 0 0 Z " fill="#45361C" transform="translate(891,738)"/>
<path d="M0 0 C0.99 0.33 1.98 0.66 3 1 C3 8.26 3 15.52 3 23 C2.67 23 2.34 23 2 23 C1.67 20.69 1.34 18.38 1 16 C0.67 16 0.34 16 0 16 C0 10.72 0 5.44 0 0 Z " fill="#423622" transform="translate(131,776)"/>
<path d="M0 0 C5.94 0 11.88 0 18 0 C13.61449685 3.28912736 11.40390167 3.37748314 6.25 3.1875 C5.55261719 3.17396484 4.85523438 3.16042969 4.13671875 3.14648438 C2.42414459 3.1112945 0.71197059 3.05749155 -1 3 C-0.67 2.01 -0.34 1.02 0 0 Z " fill="#46280C" transform="translate(303,903)"/>
<path d="M0 0 C6.93 0 13.86 0 21 0 C21.33 0.99 21.66 1.98 22 3 C18.04 3 14.08 3 10 3 C10 2.67 10 2.34 10 2 C6.7 1.67 3.4 1.34 0 1 C0 0.67 0 0.34 0 0 Z " fill="#463721" transform="translate(284,932)"/>
<path d="M0 0 C0 3.61770393 -0.63458538 4.08448793 -3 6.6875 C-3.94552734 7.72970703 -3.94552734 7.72970703 -4.91015625 8.79296875 C-8.20151324 12.26888781 -11.57548544 15.65553903 -15 19 C-15.66 18.67 -16.32 18.34 -17 18 C-16.19175781 17.20335937 -15.38351562 16.40671875 -14.55078125 15.5859375 C-13.47121829 14.51576205 -12.39179887 13.44544179 -11.3125 12.375 C-10.78205078 11.85292969 -10.25160156 11.33085937 -9.70507812 10.79296875 C-6.24349806 7.35262538 -3.07058135 3.7940764 0 0 Z " fill="#FCCD36" transform="translate(605,420)"/>
<path d="M0 0 C0.33 0.66 0.66 1.32 1 2 C-1.22884145 2.95909551 -3.45805968 3.91729837 -5.6875 4.875 C-6.31333984 5.14441406 -6.93917969 5.41382813 -7.58398438 5.69140625 C-9.38732231 6.46561416 -11.19361363 7.23293164 -13 8 C-13.928125 8.4021875 -14.85625 8.804375 -15.8125 9.21875 C-18.33002185 10.11786495 -19.52777824 9.91563769 -22 9 C-18.02165126 6.34776751 -13.89435656 5.40871785 -9.32421875 4.09765625 C-6.01888538 3.00623595 -3.07027374 1.63035716 0 0 Z " fill="#191E06" transform="translate(612,554)"/>
<path d="M0 0 C0.70125 0.144375 1.4025 0.28875 2.125 0.4375 C5.07556141 1.01478375 8.03270151 1.51695141 11 2 C11 2.66 11 3.32 11 4 C11.556875 4.12375 12.11375 4.2475 12.6875 4.375 C15.22114364 5.05976855 17.57921032 5.99133763 20 7 C16.01512977 8.32829008 14.42718344 7.27657189 10.5625 5.75 C9.42941406 5.31171875 8.29632813 4.8734375 7.12890625 4.421875 C4.39150191 3.17791098 2.29440691 1.91670356 0 0 Z " fill="#251F08" transform="translate(411,555)"/>
<path d="M0 0 C1.28583984 0.00580078 1.28583984 0.00580078 2.59765625 0.01171875 C4.9375 0.3125 4.9375 0.3125 7.9375 2.3125 C4.32756828 3.44730527 0.9532673 3.41265767 -2.8125 3.375 C-3.98296875 3.36597656 -5.1534375 3.35695312 -6.359375 3.34765625 C-7.25140625 3.33605469 -8.1434375 3.32445312 -9.0625 3.3125 C-5.98853295 0.60940601 -4.08036274 -0.08000711 0 0 Z " fill="#3D2D19" transform="translate(504.0625,132.6875)"/>
<path d="M0 0 C1.4606285 2.64738916 2 3.89448334 2 7 C0.41705218 7.05437607 -1.16644256 7.09296271 -2.75 7.125 C-3.63171875 7.14820313 -4.5134375 7.17140625 -5.421875 7.1953125 C-8.1135858 6.99139502 -9.69904974 6.36551721 -12 5 C-7.91556885 3.46833832 -4.20544343 4.36918348 0 5 C0 3.35 0 1.7 0 0 Z " fill="#F6C835" transform="translate(282,407)"/>
<path d="M0 0 C0.33 0 0.66 0 1 0 C1.33 1.98 1.66 3.96 2 6 C2.33 6 2.66 6 3 6 C3.05391993 7.79133978 3.09275571 9.58313899 3.125 11.375 C3.14820313 12.37273438 3.17140625 13.37046875 3.1953125 14.3984375 C3 17 3 17 1 19 C-0.26582219 15.13276369 -0.1118765 11.26848738 -0.0625 7.25 C-0.05798828 6.55261719 -0.05347656 5.85523438 -0.04882812 5.13671875 C-0.0371002 3.42444197 -0.01916653 1.71220967 0 0 Z " fill="#3E2E17" transform="translate(890,595)"/>
<path d="M0 0 C-2.39287704 0.8427743 -4.78871019 1.67437002 -7.1875 2.5 C-7.86103516 2.73847656 -8.53457031 2.97695313 -9.22851562 3.22265625 C-12.93204467 4.48727592 -16.07940536 5.30451221 -20 5 C-19.01 4.67 -18.02 4.34 -17 4 C-17 3.34 -17 2.68 -17 2 C-16.24074219 1.86722656 -15.48148438 1.73445312 -14.69921875 1.59765625 C-13.70535156 1.42105469 -12.71148438 1.24445312 -11.6875 1.0625 C-10.70136719 0.88847656 -9.71523438 0.71445312 -8.69921875 0.53515625 C-2.23774955 -0.74591652 -2.23774955 -0.74591652 0 0 Z " fill="#1A1F07" transform="translate(589,565)"/>
<path d="M0 0 C2.97 0 5.94 0 9 0 C9 0.99 9 1.98 9 3 C6.03 3 3.06 3 0 3 C0 2.01 0 1.02 0 0 Z " fill="#3E2A0D" transform="translate(581,288)"/>
<path d="M0 0 C1.42944945 2.35438733 2.08661261 3.48032433 1.625 6.25 C1.41875 6.8275 1.2125 7.405 1 8 C-3.60209225 8.17700355 -5.78370866 8.10814567 -10 6 C-6.7 6 -3.4 6 0 6 C0 4.02 0 2.04 0 0 Z " fill="#241707" transform="translate(284,408)"/>
<path d="M0 0 C-1.6029053 0.81498562 -3.20737278 1.62689927 -4.8125 2.4375 C-5.70582031 2.88996094 -6.59914063 3.34242188 -7.51953125 3.80859375 C-10 5 -10 5 -13 6 C-12.7734375 4.11328125 -12.7734375 4.11328125 -12 2 C-10.0390625 0.91796875 -10.0390625 0.91796875 -7.625 0.1875 C-6.83351563 -0.06644531 -6.04203125 -0.32039063 -5.2265625 -0.58203125 C-3 -1 -3 -1 0 0 Z " fill="#F6C535" transform="translate(432,289)"/>
<path d="M0 0 C5.06998019 0.65419099 9.41990777 2.8546409 14 5 C14 5.33 14 5.66 14 6 C9.93465943 6.28883414 7.66941645 5.57875609 4.1875 3.5 C3.39730469 3.0359375 2.60710937 2.571875 1.79296875 2.09375 C1.20128906 1.7328125 0.60960937 1.371875 0 1 C0 0.67 0 0.34 0 0 Z " fill="#1D1207" transform="translate(417,523)"/>
<path d="M0 0 C0.66 0.33 1.32 0.66 2 1 C0.71580959 2.67243402 -0.57757185 4.33781447 -1.875 6 C-2.59429688 6.928125 -3.31359375 7.85625 -4.0546875 8.8125 C-4.69664062 9.534375 -5.33859375 10.25625 -6 11 C-6.66 11 -7.32 11 -8 11 C-6.63629701 8.00779732 -5.05091917 5.70973471 -2.875 3.25 C-2.33617187 2.63640625 -1.79734375 2.0228125 -1.2421875 1.390625 C-0.62730469 0.70226562 -0.62730469 0.70226562 0 0 Z " fill="#211506" transform="translate(677,465)"/>
<path d="M0 0 C0.33 0.66 0.66 1.32 1 2 C-1.65654657 5.73884332 -3.58110387 7.64978174 -8 9 C-7.04270084 7.87411986 -6.08412105 6.7493285 -5.125 5.625 C-4.59132813 4.99851562 -4.05765625 4.37203125 -3.5078125 3.7265625 C-2.38567993 2.44163349 -1.20628025 1.20628025 0 0 Z " fill="#F3C234" transform="translate(459,328)"/>
<path d="M0 0 C2.64 0 5.28 0 8 0 C7.34 0.433125 6.68 0.86625 6 1.3125 C5.34 1.869375 4.68 2.42625 4 3 C4 3.99 4 4.98 4 6 C2.62437146 4.71034824 1.29233607 3.37310707 0 2 C0 1.34 0 0.68 0 0 Z " fill="#D3A52C" transform="translate(504,169)"/>
<path d="M0 0 C0.66 0.33 1.32 0.66 2 1 C-1.07999946 4.67230705 -3.2482602 5.56802365 -8 6 C-5.54080489 3.3651481 -3.42227589 1.25483449 0 0 Z " fill="#251709" transform="translate(553,420)"/>
<path d="M0 0 C1.98 0.99 1.98 0.99 4 2 C3.01 4.31 2.02 6.62 1 9 C0.67 9 0.34 9 0 9 C0 6.03 0 3.06 0 0 Z " fill="#271908" transform="translate(410,313)"/>
</svg>
